<svg xmlns="http://www.w3.org/2000/svg" version="1.1" xmlns:xlink="http://www.w3.org/1999/xlink" width="800.98669" height="1046.72"><svg version="1.1" id="SvgjsSvg1169" width="800.98669" height="1046.72" viewBox="0 0 800.98669 1046.72" sodipodi:docname="Logo print 30cm x 30 cm - alle farger.eps" xmlns:inkscape="http://www.inkscape.org/namespaces/inkscape" xmlns:sodipodi="http://sodipodi.sourceforge.net/DTD/sodipodi-0.dtd" xmlns="http://www.w3.org/2000/svg" xmlns:svg="http://www.w3.org/2000/svg">
  <defs id="SvgjsDefs1168"></defs>
  <sodipodi:namedview id="SvgjsSodipodi:namedview1167" pagecolor="#ffffff" bordercolor="#000000" borderopacity="0.25" inkscape:showpageshadow="2" inkscape:pageopacity="0.0" inkscape:pagecheckerboard="0" inkscape:deskcolor="#d1d1d1">
    <inkscape:page x="0" y="0" inkscape:label="1" id="SvgjsInkscape:page1166" width="800.98669" height="1046.72" margin="0" bleed="0"></inkscape:page>
  </sodipodi:namedview>
  <g id="SvgjsG1165" inkscape:groupmode="layer" inkscape:label="1">
    <g id="SvgjsG1164">
      <path id="SvgjsPath1163" d="m 773.992,6464.8 -27.746,39.37 231.805,163.34 c 28.609,20.15 32.949,44.35 13.027,72.64 l -42.152,59.82 c -17.43,24.73 -38.363,31.51 -62.774,20.36 l -180.246,-78.28 c -64.535,-28.85 -119.734,-10.69 -165.625,54.44 l -28.812,40.89 c -56.192,79.77 -44.918,147.41 33.855,202.91 l 179.133,126.21 59.727,-3.25 27.75,-39.37 -216.762,-152.73 c -28.602,-20.16 -32.938,-44.37 -13.02,-72.64 l 36.282,-51.49 c 17.429,-24.74 38.355,-31.54 62.781,-20.37 l 179.93,80.32 c 64.722,27.47 119.871,8.91 165.405,-55.71 l 35.21,-49.98 c 56.21,-79.78 44.9,-147.42 -33.86,-202.92 l -194.181,-136.81 -59.727,3.25" style="fill:#100f0d;fill-opacity:1;fill-rule:nonzero;stroke:none" transform="matrix(0.13333333,0,0,-0.13333333,0,1046.72)"></path>
      <path id="SvgjsPath1162" d="m 1169.03,6857.11 -260.573,473.05 78.223,43.1 265.05,-481.17 c 19.97,-36.25 48.82,-45.4 86.57,-27.41 l 38,-68.97 c -88.72,-48.87 -157.79,-28.4 -207.27,61.4" style="fill:#100f0d;fill-opacity:1;fill-rule:nonzero;stroke:none" transform="matrix(0.13333333,0,0,-0.13333333,0,1046.72)"></path>
      <path id="SvgjsPath1161" d="m 1473.6,7000.87 c 13.93,-33.69 37.61,-43.6 71.08,-29.78 l 114.87,47.5 c 32.89,13.59 42.4,37.22 28.48,70.91 l -83.17,201.18 c -13.69,33.1 -36.99,42.85 -69.88,29.26 l -114.86,-47.48 c -33.48,-13.85 -43.36,-37.32 -29.68,-70.41 z m -86.07,-25.57 -76.09,184.08 c -36.09,87.32 -10.75,148.92 76.05,184.79 l 119.11,49.24 c 86.79,35.88 148.24,10.15 184.33,-77.17 l 76.09,-184.06 c 36.33,-87.91 11.1,-149.79 -75.68,-185.66 l -119.13,-49.24 c -86.78,-35.88 -148.35,-9.88 -184.68,78.02" style="fill:#100f0d;fill-opacity:1;fill-rule:nonzero;stroke:none" transform="matrix(0.13333333,0,0,-0.13333333,0,1046.72)"></path>
      <path id="SvgjsPath1160" d="m 1893.2,7169.07 -129.17,479.45 86.23,23.24 40.48,-150.28 164.47,44.31 20.49,-76.03 -164.47,-44.32 70.61,-262.07 c 9.48,-35.19 31.69,-48.07 66.67,-38.65 l 120.9,32.57 12.29,-45.61 -32.7,-41.43 -82.67,-22.28 c -90.68,-24.43 -148.39,9.27 -173.13,101.1" style="fill:#100f0d;fill-opacity:1;fill-rule:nonzero;stroke:none" transform="matrix(0.13333333,0,0,-0.13333333,0,1046.72)"></path>
      <path id="SvgjsPath1159" d="m 2250.95,7258.12 -78.22,490.33 88.19,14.08 24.51,-153.69 168.21,26.84 12.41,-77.77 -168.21,-26.83 42.76,-268.04 c 5.75,-35.99 26.48,-51.12 62.25,-45.41 l 123.65,19.71 7.45,-46.65 -36.86,-37.77 -84.56,-13.49 c -92.74,-14.79 -146.6,24.76 -161.58,118.69" style="fill:#100f0d;fill-opacity:1;fill-rule:nonzero;stroke:none" transform="matrix(0.13333333,0,0,-0.13333333,0,1046.72)"></path>
      <path id="SvgjsPath1158" d="m 2605.61,7199.33 -1.92,47.21 212.5,8.65 c 36.18,1.46 53.52,20.72 52.01,57.74 -1.55,38.25 -17.15,59.26 -46.79,63 l -106.5,13.28 c -78.44,10.4 -119.14,52.02 -122.11,124.84 -3.71,91.31 41.65,138.9 136.1,142.74 l 149.95,6.11 43.59,-29.74 1.92,-47.21 -190.42,-7.75 c -36.79,-1.5 -54.44,-20.76 -52.93,-57.78 1.4,-34.57 17.54,-53.99 48.44,-58.3 l 107.43,-13.24 c 77.18,-9.84 117.32,-52.7 120.42,-128.61 3.74,-91.95 -41.93,-139.85 -136.98,-143.72 l -171.11,-6.96 -43.6,29.74" style="fill:#100f0d;fill-opacity:1;fill-rule:nonzero;stroke:none" transform="matrix(0.13333333,0,0,-0.13333333,0,1046.72)"></path>
      <path id="SvgjsPath1157" d="m 3069.05,7176.72 41.04,541.3 c 7.18,94.82 57.6,138.71 151.24,131.6 l 85.38,-6.46 39.85,-34.62 -3.57,-47.11 -124.85,9.47 c -36.13,2.74 -55.54,-14.06 -58.3,-50.4 l -5.18,-68.36 169.84,-12.87 -5.96,-78.51 -169.84,12.87 -30.61,-403.67 -89.04,6.76" style="fill:#100f0d;fill-opacity:1;fill-rule:nonzero;stroke:none" transform="matrix(0.13333333,0,0,-0.13333333,0,1046.72)"></path>
      <path id="SvgjsPath1156" d="m 3499.29,7707.3 15.28,97 94.59,-14.91 -15.29,-97 z m -182.51,-667.1 c 53.04,-6.49 83.75,16.81 92.11,69.89 l 80.48,510.62 88.21,-13.91 -78.89,-500.55 C 3481,6994 3416.36,6946.67 3304.82,6964.24 l 11.96,75.96" style="fill:#100f0d;fill-opacity:1;fill-rule:nonzero;stroke:none" transform="matrix(0.13333333,0,0,-0.13333333,0,1046.72)"></path>
      <path id="SvgjsPath1155" d="m 3780.18,7358.25 215.08,-58.16 18.86,69.75 c 9.34,34.57 -3.17,56.52 -37.52,65.8 l -111.1,30.05 c -34.96,9.45 -57.11,-3.13 -66.46,-37.69 z m -121.76,-108.15 51.99,192.27 c 24.67,91.22 82.32,124.57 172.98,100.05 l 115.54,-31.25 c 90.65,-24.51 123.65,-82.37 98.99,-173.59 l -34.83,-128.77 -301.29,81.48 -19.59,-72.44 c -9.51,-35.19 3.2,-57.48 38.17,-66.94 l 231.08,-62.49 -12.33,-45.61 -48.21,-19.58 -193.76,52.38 c -90.66,24.52 -123.56,82.68 -98.74,174.49" style="fill:#100f0d;fill-opacity:1;fill-rule:nonzero;stroke:none" transform="matrix(0.13333333,0,0,-0.13333333,0,1046.72)"></path>
      <path id="SvgjsPath1154" d="m 4169.03,7099.18 197.92,502.51 83.09,-32.73 -201.31,-511.13 c -15.17,-38.5 -3.8,-66.55 34.15,-84.13 l -28.86,-73.27 c -94.23,37.11 -122.57,103.36 -84.99,198.75" style="fill:#100f0d;fill-opacity:1;fill-rule:nonzero;stroke:none" transform="matrix(0.13333333,0,0,-0.13333333,0,1046.72)"></path>
      <path id="SvgjsPath1153" d="m 4402.12,7002.13 233.46,487.02 80.53,-38.61 -237.45,-495.38 c -17.9,-37.3 -8.57,-66.1 28.02,-86.36 l -34.04,-71.01 c -91.33,43.78 -114.83,111.89 -70.52,204.34" style="fill:#100f0d;fill-opacity:1;fill-rule:nonzero;stroke:none" transform="matrix(0.13333333,0,0,-0.13333333,0,1046.72)"></path>
      <path id="SvgjsPath1152" d="M 4772.94,6961.09 4962,6843.2 l 38.23,61.31 c 18.96,30.39 13.33,55.01 -16.88,73.85 l -97.65,60.89 c -30.73,19.17 -55.57,13.55 -74.52,-16.84 z m -147.83,-68.29 105.38,169 c 50.01,80.18 114.85,95.42 194.54,45.74 l 101.56,-63.34 c 79.69,-49.7 94.54,-114.63 44.52,-194.8 l -70.57,-113.2 -264.85,165.15 -39.71,-63.66 c -19.29,-30.94 -13.56,-55.96 17.17,-75.13 l 203.13,-126.67 -24.99,-40.09 -51.83,-4.8 -170.31,106.21 c -79.69,49.68 -94.37,114.88 -44.04,195.59" style="fill:#100f0d;fill-opacity:1;fill-rule:nonzero;stroke:none" transform="matrix(0.13333333,0,0,-0.13333333,0,1046.72)"></path>
      <path id="SvgjsPath1151" d="m 5069.44,6599.69 313.73,384.88 69.22,-56.43 -98.33,-120.63 132.03,-107.62 -49.75,-61.04 -132.03,107.62 -171.5,-210.39 c -23.03,-28.25 -20.51,-53.79 7.58,-76.68 l 97.06,-79.11 -29.86,-36.63 -52.73,2.35 -66.36,54.1 c -72.8,59.33 -79.15,125.86 -19.06,199.58" style="fill:#100f0d;fill-opacity:1;fill-rule:nonzero;stroke:none" transform="matrix(0.13333333,0,0,-0.13333333,0,1046.72)"></path>
      <path id="SvgjsPath1150" d="m 270.633,1068.74 31.09,36.8 217.949,-184.138 c 26.883,-22.722 51.48,-20.882 73.805,5.547 l 47.238,55.903 c 19.527,23.098 20.734,45.128 3.648,66.038 l -122.187,155.38 c -44.547,55.42 -41.098,113.56 10.32,174.41 l 32.289,38.21 c 62.965,74.53 131.485,80.53 205.555,17.95 l 168.418,-142.29 12.168,-58.8 -31.082,-36.8 -203.809,172.19 c -26.883,22.72 -51.488,20.86 -73.805,-5.55 l -40.656,-48.12 c -19.531,-23.12 -20.754,-45.13 -3.648,-66.04 L 722.008,1094.86 C 765.273,1038.9 761.406,980.723 710.391,920.34 L 670.934,873.641 C 607.953,799.102 539.43,793.129 465.375,855.699 l -182.566,154.241 -12.176,58.8" style="fill:#100f0d;fill-opacity:1;fill-rule:nonzero;stroke:none" transform="matrix(0.13333333,0,0,-0.13333333,0,1046.72)"></path>
      <path id="SvgjsPath1149" d="M 848.879,673.563 994.832,585.5 c 30.658,-18.5 55.408,-12.16 74.238,19.051 l 112.47,186.398 c 18.5,30.653 12.42,55.25 -18.25,73.75 l -145.94,88.063 z M 635.543,493.941 981.09,1066.61 1205.56,931.16 c 80.9,-48.808 96.95,-113.68 48.13,-194.578 L 1150.8,566.051 c -49.14,-81.442 -114.16,-97.75 -195.066,-48.922 l -147.527,89.012 -95.723,-158.629 -76.941,46.429" style="fill:#100f0d;fill-opacity:1;fill-rule:nonzero;stroke:none" transform="matrix(0.13333333,0,0,-0.13333333,0,1046.72)"></path>
      <path id="SvgjsPath1148" d="m 1476.95,887.051 40.91,89.269 87.58,-40.129 -40.9,-89.269 z m -234.32,-520.34 201.42,439.629 81.69,-37.43 -201.41,-439.629 -81.7,37.43" style="fill:#100f0d;fill-opacity:1;fill-rule:nonzero;stroke:none" transform="matrix(0.13333333,0,0,-0.13333333,0,1046.72)"></path>
      <path id="SvgjsPath1147" d="M 1531.01,400.223 1720.56,905.949 1804.7,874.41 1611.91,360 c -14.52,-38.75 -2.57,-66.641 35.91,-83.699 l -27.64,-73.731 c -95.42,35.77 -125.14,101.641 -89.17,197.653" style="fill:#100f0d;fill-opacity:1;fill-rule:nonzero;stroke:none" transform="matrix(0.13333333,0,0,-0.13333333,0,1046.72)"></path>
      <path id="SvgjsPath1146" d="m 1789.03,309.672 151.66,518.348 86.25,-25.231 -154.27,-527.238 c -11.62,-39.711 2.36,-66.649 41.99,-80.801 l -22.11,-75.59 c -97.8,28.621 -132.31,92.121 -103.52,190.512" style="fill:#100f0d;fill-opacity:1;fill-rule:nonzero;stroke:none" transform="matrix(0.13333333,0,0,-0.13333333,0,1046.72)"></path>
      <path id="SvgjsPath1145" d="m 2031.85,92.9922 105.4,532.5198 c 18.47,93.289 74.05,130.777 166.74,112.429 l 84.51,-16.722 35.69,-39.168 -9.17,-46.352 -123.59,24.453 c -35.75,7.078 -57.15,-7.261 -64.23,-43 L 2213.9,549.91 2382.01,516.629 2366.72,439.391 2198.61,472.66 2120,75.5391 2031.85,92.9922" style="fill:#100f0d;fill-opacity:1;fill-rule:nonzero;stroke:none" transform="matrix(0.13333333,0,0,-0.13333333,0,1046.72)"></path>
      <path id="SvgjsPath1144" d="m 2529.86,147.313 c -2.35,-36.383 14.65,-55.7232 51.03,-58.063 l 124.81,-8.0312 c 35.73,-2.2969 54.79,14.7226 57.13,51.1012 l 13.97,217.25 c 2.3,35.731 -14.43,54.77 -50.17,57.071 l -124.81,8.031 c -36.36,2.34 -55.69,-14.371 -57.99,-50.113 z m -89.08,15.007 12.79,198.762 c 6.06,94.297 56.25,138.418 150.55,132.34 l 129.42,-8.32 c 94.3,-6.071 138.4,-56.25 132.34,-150.551 L 2853.09,135.789 C 2846.98,40.8711 2796.78,-3.55078 2702.48,2.51953 l -129.42,8.33207 c -94.3,6.0781 -138.39,56.5586 -132.28,151.4684" style="fill:#100f0d;fill-opacity:1;fill-rule:nonzero;stroke:none" transform="matrix(0.13333333,0,0,-0.13333333,0,1046.72)"></path>
      <path id="SvgjsPath1143" d="m 3029.36,0 -28.26,425.199 c 19.01,39.641 58.72,61.473 119.12,65.492 l 95.21,6.321 44.6,-28.59 3.14,-47.141 -120.16,-7.992 c -24.03,-1.598 -40.58,-8.898 -49.61,-21.867 L 3119.03,5.96875 3029.36,0" style="fill:#100f0d;fill-opacity:1;fill-rule:nonzero;stroke:none" transform="matrix(0.13333333,0,0,-0.13333333,0,1046.72)"></path>
      <path id="SvgjsPath1142" d="m 3463.97,323.652 219.87,43.789 -14.12,70.86 c -6.99,35.121 -28.06,49.199 -63.18,42.199 l -113.57,-22.609 c -35.74,-7.121 -50.11,-28.239 -43.11,-63.36 z m -61.53,-151.101 -38.9,195.34 c -18.45,92.672 18.65,148.23 111.33,166.679 l 118.11,23.52 c 92.67,18.461 148.23,-18.649 166.68,-111.32 l 26.06,-130.829 -308,-61.339 14.66,-73.59 c 7.12,-35.742 28.53,-50.051 64.28,-42.93 l 236.21,47.047 9.23,-46.34 -34.73,-39.0273 -198.06,-39.4492 c -92.67,-18.4531 -148.3,18.957 -166.87,112.2385" style="fill:#100f0d;fill-opacity:1;fill-rule:nonzero;stroke:none" transform="matrix(0.13333333,0,0,-0.13333333,0,1046.72)"></path>
      <path id="SvgjsPath1141" d="m 4019.48,166.309 -168.14,453.402 245.8,91.16 c 88.6,32.859 149.32,4.988 182.18,-83.601 l 118.86,-320.508 -84.26,-31.25 -122.07,329.187 c -12.46,33.582 -35.49,44.153 -69.07,31.692 l -159.81,-59.262 140.75,-379.578 -84.24,-31.242" style="fill:#100f0d;fill-opacity:1;fill-rule:nonzero;stroke:none" transform="matrix(0.13333333,0,0,-0.13333333,0,1046.72)"></path>
      <path id="SvgjsPath1140" d="m 4564.98,389.559 -218.52,431.382 80.15,40.61 218.53,-431.379 z m -261.17,507.39 -44.38,87.602 85.95,43.529 44.37,-87.58 -85.94,-43.551" style="fill:#100f0d;fill-opacity:1;fill-rule:nonzero;stroke:none" transform="matrix(0.13333333,0,0,-0.13333333,0,1046.72)"></path>
      <path id="SvgjsPath1139" d="m 4812.12,516.902 -265.2,404.36 219.22,143.788 c 79,51.81 144.43,38.23 196.25,-40.79 l 187.48,-285.838 -75.15,-49.293 -192.56,293.601 c -19.63,29.94 -44.45,35.1 -74.39,15.45 l -142.53,-93.481 222.02,-338.508 -75.14,-49.289" style="fill:#100f0d;fill-opacity:1;fill-rule:nonzero;stroke:none" transform="matrix(0.13333333,0,0,-0.13333333,0,1046.72)"></path>
      <path id="SvgjsPath1138" d="m 5280,1015.83 c 24.52,-26.978 50.23,-28.221 77.22,-3.71 l 126.86,115.23 -219.25,241.37 -126.86,-115.22 c -26.98,-24.51 -28.41,-50.02 -4.33,-76.53 z m -72.73,-53.56 -133.92,147.43 c -63.53,69.94 -60.1,136.88 10.31,200.84 l 194.74,176.89 353.79,-389.49 c 63.93,-70.39 60.7,-137.588 -9.68,-201.518 l -134.4,-122.102 -52.73,-5.32 -31.76,34.973 164.57,149.488 c 26.97,24.488 28.2,50.229 3.7,77.199 l -34.87,38.4 -128.23,-116.478 c -70.41,-63.941 -137.58,-60.723 -201.52,9.688" style="fill:#100f0d;fill-opacity:1;fill-rule:nonzero;stroke:none" transform="matrix(0.13333333,0,0,-0.13333333,0,1046.72)"></path>
      <path id="SvgjsPath1137" d="M 4025.58,6643.71 235.148,2691.15 c 0,0 -1030.211,2217.09 1235.042,3707.09 0,0 1011.43,754.97 2555.39,245.47" style="fill:#ed1954;fill-opacity:1;fill-rule:nonzero;stroke:none" transform="matrix(0.13333333,0,0,-0.13333333,0,1046.72)"></path>
      <path id="SvgjsPath1136" d="m 4025.58,6643.71 c 0,0 736.53,-277.16 954.96,-569.78 156.7,-209.93 64.06,-24.65 64.06,-24.65 L 968.531,1633.54 c 0,0 -554.14,479.3 -733.383,1057.61 L 4025.58,6643.71" style="fill:#548ed2;fill-opacity:1;fill-rule:nonzero;stroke:none" transform="matrix(0.13333333,0,0,-0.13333333,0,1046.72)"></path>
      <path id="SvgjsPath1135" d="m 5021.44,6033.84 c 0,0 411.65,-213.19 702.51,-1026.74 L 2355.91,940.52 c 0,0 -823.83,152.63 -1425.976,723.9 L 5021.44,6033.84" style="fill:#57c03d;fill-opacity:1;fill-rule:nonzero;stroke:none" transform="matrix(0.13333333,0,0,-0.13333333,0,1046.72)"></path>
      <path id="SvgjsPath1134" d="m 1982.34,1020.01 3741.61,4048.85 c 0,0 1063.69,-2074.29 -1026.8,-3708.66 0,0 -1227.5,-865.981 -2714.81,-340.19" style="fill:#e2e417;fill-opacity:1;fill-rule:nonzero;stroke:none" transform="matrix(0.13333333,0,0,-0.13333333,0,1046.72)"></path>
      <path id="SvgjsPath1133" d="M 3003.69,6805.83 C 1364.48,6805.83 30.8789,5472.23 30.8789,3833.01 30.8789,2193.8 1364.48,860.199 3003.69,860.199 c 1639.22,0 2972.82,1333.601 2972.82,2972.811 0,1639.22 -1333.6,2972.82 -2972.82,2972.82 z m 0,-5976.51 c -405.49,0 -798.86,79.422 -1169.17,236.05 -357.68,151.28 -678.91,367.86 -954.758,643.71 C 603.91,1984.93 387.336,2306.15 236.051,2663.84 79.418,3034.15 0,3427.53 0,3833.01 c 0,405.49 79.418,798.86 236.051,1169.18 151.285,357.68 367.859,678.9 643.711,954.76 275.848,275.84 597.078,492.41 954.758,643.71 370.31,156.62 763.68,236.05 1169.17,236.05 405.49,0 798.85,-79.43 1169.18,-236.05 357.68,-151.3 678.9,-367.87 954.75,-643.71 275.85,-275.86 492.42,-597.08 643.71,-954.76 156.63,-370.32 236.06,-763.69 236.06,-1169.18 0,-405.48 -79.43,-798.86 -236.06,-1169.17 C 5620.04,2306.15 5403.47,1984.93 5127.62,1709.08 4851.77,1433.23 4530.55,1216.65 4172.87,1065.37 3802.54,908.742 3409.18,829.32 3003.69,829.32" style="fill:#100f0d;fill-opacity:1;fill-rule:nonzero;stroke:none" transform="matrix(0.13333333,0,0,-0.13333333,0,1046.72)"></path>
      <path id="SvgjsPath1132" d="m 3124.26,1979.16 897.03,385.01 c 35.62,15.29 58.7,50.32 58.7,89.08 v 978.82 c 0,35.63 -19.15,68.51 -50.14,86.08 l -166.51,94.43 -1570.77,-22.57 -107.23,-52.23 c -42.1,-20.51 -68.81,-63.24 -68.81,-110.07 v -942.09 c 0,-51.19 29.42,-97.82 75.61,-119.87 l 804.55,-384.04 c 40.17,-19.18 86.66,-20.1 127.57,-2.55" style="fill:#ffffff;fill-opacity:1;fill-rule:nonzero;stroke:none" transform="matrix(0.13333333,0,0,-0.13333333,0,1046.72)"></path>
      <path id="SvgjsPath1131" d="m 2296.24,3574.62 -104.13,-50.72 c -36.54,-17.8 -60.14,-55.55 -60.14,-96.19 v -942.09 c 0,-44.98 26.23,-86.56 66.82,-105.94 l 804.55,-384.04 c 36.15,-17.26 78.01,-18.1 114.82,-2.29 l 897.03,385.01 c 29.99,12.87 49.36,42.26 49.36,74.89 v 978.82 c 0,30.01 -16.22,57.85 -42.31,72.65 l -162.88,92.36 z m 767.05,-1623.43 c -25.07,0 -50.12,5.54 -73.25,16.59 l -804.55,384.04 c -51.27,24.47 -84.4,76.99 -84.4,133.8 v 942.09 c 0,52.36 30.42,101.02 77.49,123.94 l 110.32,53.75 3.44,0.05 1574.97,22.63 170.15,-96.5 c 35.76,-20.27 57.97,-58.4 57.97,-99.51 v -978.82 c 0,-44.99 -26.71,-85.52 -68.05,-103.27 l -897.03,-385.01 c -21.43,-9.2 -44.26,-13.78 -67.06,-13.78" style="fill:#100f0d;fill-opacity:1;fill-rule:nonzero;stroke:none" transform="matrix(0.13333333,0,0,-0.13333333,0,1046.72)"></path>
      <path id="SvgjsPath1130" d="m 3066.15,3027.45 c -20.23,0 -40.42,4.59 -59.14,13.73 l -882.35,431.18 13.56,27.74 882.35,-431.18 c 28.01,-13.68 60.32,-14.11 88.69,-1.18 l 948.15,432.54 12.82,-28.09 -948.16,-432.54 c -17.84,-8.14 -36.89,-12.2 -55.92,-12.2" style="fill:#100f0d;fill-opacity:1;fill-rule:nonzero;stroke:none" transform="matrix(0.13333333,0,0,-0.13333333,0,1046.72)"></path>
      <path id="SvgjsPath1129" d="m 3077.44,1966.67 h -30.88 v 1076.27 h 30.88 V 1966.67" style="fill:#100f0d;fill-opacity:1;fill-rule:nonzero;stroke:none" transform="matrix(0.13333333,0,0,-0.13333333,0,1046.72)"></path>
      <path id="SvgjsPath1128" d="m 2332.17,3559.44 707.46,-343.39 c 18.54,-8.99 40.14,-9.17 58.82,-0.48 l 748.38,348.07 c 16.83,7.83 27.6,24.71 27.6,43.27 v 880.54 c 0,22.97 -13.6,43.76 -34.65,52.96 l -211.16,92.27 -1160.02,-9.03 -135.27,-60.21 c -22.05,-9.81 -36.25,-31.69 -36.25,-55.82 v -892.14 c 0,-23.86 13.63,-45.62 35.09,-56.04" style="fill:#ffffff;fill-opacity:1;fill-rule:nonzero;stroke:none" transform="matrix(0.13333333,0,0,-0.13333333,0,1046.72)"></path>
      <path id="SvgjsPath1127" d="m 2338.91,3573.33 707.47,-343.39 c 14.41,-6.98 31.02,-7.14 45.56,-0.38 l 748.37,348.07 c 11.35,5.28 18.68,16.78 18.68,29.28 v 880.54 c 0,16.83 -9.97,32.07 -25.39,38.81 l -208.14,90.96 -1153.52,-8.98 -132.33,-58.9 c -16.46,-7.33 -27.09,-23.71 -27.09,-41.72 v -892.14 c 0,-17.82 10.36,-34.36 26.39,-42.15 z m 730.64,-379.63 c -12.52,0 -25.04,2.83 -36.66,8.46 l -707.46,343.39 c -26.6,12.91 -43.79,40.36 -43.79,69.93 v 892.14 c 0,30.2 17.83,57.65 45.41,69.93 l 138.21,61.52 3.22,0.02 1163.31,9.05 214.17,-93.58 c 26.67,-11.65 43.91,-38 43.91,-67.11 v -880.54 c 0,-24.47 -14.34,-46.95 -36.53,-57.28 l -748.38,-348.07 c -11.28,-5.24 -23.35,-7.86 -35.41,-7.86" style="fill:#100f0d;fill-opacity:1;fill-rule:nonzero;stroke:none" transform="matrix(0.13333333,0,0,-0.13333333,0,1046.72)"></path>
      <path id="SvgjsPath1126" d="m 3064.28,4153.54 c -20.51,0 -40.99,4.74 -59.93,14.18 l -705.14,351.84 13.79,27.64 705.14,-351.84 c 28.05,-14.01 60.52,-14.58 89.06,-1.57 l 749.63,341.84 12.82,-28.09 -749.64,-341.84 c -17.8,-8.11 -36.77,-12.16 -55.73,-12.16" style="fill:#100f0d;fill-opacity:1;fill-rule:nonzero;stroke:none" transform="matrix(0.13333333,0,0,-0.13333333,0,1046.72)"></path>
      <path id="SvgjsPath1125" d="m 3077.44,3209.61 h -30.88 v 959.43 h 30.88 v -959.43" style="fill:#100f0d;fill-opacity:1;fill-rule:nonzero;stroke:none" transform="matrix(0.13333333,0,0,-0.13333333,0,1046.72)"></path>
      <path id="SvgjsPath1124" d="m 2466.02,4589.45 539.05,-259.54 c 23.31,-11.22 50.39,-11.56 73.97,-0.92 l 518.33,233.83 c 27.21,12.28 44.57,39.5 44.21,69.34 l 0.55,669.51 c 0.02,27 -15.45,51.61 -39.79,63.28 l -545.75,261.84 c -20.75,9.95 -44.88,10 -65.67,0.12 l -523.46,-248.69 c -21.36,-10.15 -34.97,-31.68 -34.97,-55.32 v -680.09 c 0,-22.75 13.03,-43.49 33.53,-53.36" style="fill:#ffffff;fill-opacity:1;fill-rule:nonzero;stroke:none" transform="matrix(0.13333333,0,0,-0.13333333,0,1046.72)"></path>
      <path id="SvgjsPath1123" d="m 2472.72,4603.37 539.05,-259.55 c 19.24,-9.27 41.45,-9.54 60.92,-0.76 l 518.34,233.84 c 21.61,9.75 35.39,31.37 35.11,55.09 l 0.55,669.7 c 0.02,20.92 -12.17,40.29 -31.04,49.34 l -545.74,261.84 c -16.63,7.96 -35.72,8.01 -52.37,0.09 l -523.46,-248.69 c -15.88,-7.55 -26.15,-23.79 -26.15,-41.38 v -680.08 c 0,-16.71 9.73,-32.19 24.79,-39.44 z m 570.32,-297.59 c -15.27,0 -30.52,3.41 -44.66,10.22 l -539.06,259.55 c -25.68,12.36 -42.27,38.76 -42.27,67.26 v 680.08 c 0,29.44 17.18,56.64 43.78,69.27 l 523.46,248.7 c 25.12,11.92 53.91,11.87 78.98,-0.15 l 545.74,-261.84 c 29.53,-14.16 48.59,-44.47 48.56,-77.21 l -0.55,-669.51 c 0.43,-35.79 -20.5,-68.6 -53.3,-83.4 l -518.33,-233.84 c -13.5,-6.09 -27.93,-9.13 -42.35,-9.13" style="fill:#100f0d;fill-opacity:1;fill-rule:nonzero;stroke:none" transform="matrix(0.13333333,0,0,-0.13333333,0,1046.72)"></path>
      <path id="SvgjsPath1122" d="m 3039.08,5063.53 c -25.76,0 -51.5,5.81 -75.38,17.42 l -530.2,257.86 13.51,27.77 530.2,-257.86 c 38.3,-18.64 82.47,-19.08 121.14,-1.24 l 527.8,243.44 12.94,-28.04 -527.81,-243.45 c -23.01,-10.61 -47.62,-15.9 -72.2,-15.9" style="fill:#100f0d;fill-opacity:1;fill-rule:nonzero;stroke:none" transform="matrix(0.13333333,0,0,-0.13333333,0,1046.72)"></path>
      <path id="SvgjsPath1121" d="M 3051.88,4321.51 H 3021 v 757.52 h 30.88 v -757.52" style="fill:#100f0d;fill-opacity:1;fill-rule:nonzero;stroke:none" transform="matrix(0.13333333,0,0,-0.13333333,0,1046.72)"></path>
      <path id="SvgjsPath1120" d="m 3327.88,2499.64 -123.89,-49.36 -1.05,403.86 c -0.07,29.87 16.58,57.87 43.74,70.31 2.63,1.21 5.37,2.28 8.22,3.18 35.2,11.14 70.97,-15.99 71.15,-52.91 l 1.83,-375.08" style="fill:#100f0d;fill-opacity:1;fill-rule:nonzero;stroke:none" transform="matrix(0.13333333,0,0,-0.13333333,0,1046.72)"></path>
      <path id="SvgjsPath1119" d="m 3271.11,2914.71 c -3.87,0 -7.75,-0.6 -11.55,-1.8 -2.13,-0.68 -4.29,-1.51 -6.45,-2.5 -21.16,-9.69 -34.79,-31.76 -34.72,-56.22 l 0.98,-381.16 93.02,37.06 -1.77,364.56 c -0.06,12.98 -6.15,24.82 -16.68,32.5 -6.84,4.98 -14.78,7.56 -22.83,7.56 z m -82.5,-487.18 -1.1,426.57 c -0.1,36.54 20.6,69.67 52.74,84.38 3.3,1.52 6.67,2.82 10,3.87 21.17,6.7 43.74,2.97 61.87,-10.24 18.29,-13.32 29.26,-34.75 29.38,-57.31 l 1.87,-385.6 -154.76,-61.67" style="fill:#100f0d;fill-opacity:1;fill-rule:nonzero;stroke:none" transform="matrix(0.13333333,0,0,-0.13333333,0,1046.72)"></path>
      <path id="SvgjsPath1118" d="m 3955.86,2703.1 -123.89,-49.37 -1.05,403.86 c -0.08,29.88 16.57,57.87 43.73,70.31 2.64,1.21 5.38,2.28 8.22,3.18 35.21,11.15 70.98,-15.98 71.16,-52.91 l 1.83,-375.07" style="fill:#100f0d;fill-opacity:1;fill-rule:nonzero;stroke:none" transform="matrix(0.13333333,0,0,-0.13333333,0,1046.72)"></path>
      <path id="SvgjsPath1117" d="m 3899.09,3118.16 c -3.86,0 -7.75,-0.6 -11.56,-1.79 -2.17,-0.69 -4.32,-1.53 -6.41,-2.49 -21.2,-9.7 -34.83,-31.78 -34.76,-56.24 l 0.99,-381.15 93.01,37.06 -1.78,364.55 c -0.06,12.98 -6.13,24.83 -16.67,32.51 -6.83,4.98 -14.77,7.55 -22.82,7.55 z m -82.5,-487.18 -1.11,426.57 c -0.1,36.55 20.6,69.67 52.74,84.39 3.23,1.48 6.61,2.79 10.01,3.86 21.15,6.71 43.72,2.99 61.86,-10.23 18.29,-13.32 29.27,-34.76 29.37,-57.32 l 1.89,-385.6 -154.76,-61.67" style="fill:#100f0d;fill-opacity:1;fill-rule:nonzero;stroke:none" transform="matrix(0.13333333,0,0,-0.13333333,0,1046.72)"></path>
      <path id="SvgjsPath1116" d="m 3509.22,2345.25 -2.5,422.05 c -0.29,49.19 29.18,95.21 77.41,115.56 4.68,1.97 9.55,3.72 14.61,5.19 62.54,18.18 126.28,-26.69 126.79,-87.5 l 6.91,-379.59 -223.22,-75.71" style="fill:#100f0d;fill-opacity:1;fill-rule:nonzero;stroke:none" transform="matrix(0.13333333,0,0,-0.13333333,0,1046.72)"></path>
      <path id="SvgjsPath1115" d="m 3627.11,2876.64 c -8.07,0 -16.18,-1.12 -24.07,-3.41 -4.29,-1.25 -8.63,-2.79 -12.91,-4.6 -41.55,-17.53 -68.23,-57.27 -67.96,-101.24 l 2.36,-400.64 192.27,65.21 -6.71,368.31 c -0.19,23.13 -11.58,44.71 -31.25,59.35 -15,11.17 -33.27,17.02 -51.73,17.02 z m -133.2,-552.89 -2.62,443.46 c -0.34,56.5 33.75,107.47 86.84,129.87 5.38,2.27 10.86,4.22 16.3,5.81 35.15,10.18 73.58,3.28 102.85,-18.5 27.49,-20.46 43.42,-50.97 43.69,-83.71 l 7.11,-390.72 -254.17,-86.21" style="fill:#100f0d;fill-opacity:1;fill-rule:nonzero;stroke:none" transform="matrix(0.13333333,0,0,-0.13333333,0,1046.72)"></path>
      <path id="SvgjsPath1114" d="m 3795.63,2448.05 -241.37,-99.92 381.3,-441.73 248.25,130.9 -388.18,410.75" style="fill:#dadad8;fill-opacity:1;fill-rule:nonzero;stroke:none" transform="matrix(0.13333333,0,0,-0.13333333,0,1046.72)"></path>
      <path id="SvgjsPath1113" d="m 3579.92,2342.04 359.3,-416.26 219.4,115.7 -366.91,388.23 z m 351.97,-455.02 -403.28,467.2 270.94,112.16 409.45,-433.26 -277.11,-146.1" style="fill:#100f0d;fill-opacity:1;fill-rule:nonzero;stroke:none" transform="matrix(0.13333333,0,0,-0.13333333,0,1046.72)"></path>
      <path id="SvgjsPath1112" d="m 4237.42,2294.61 -91.65,-11.45 0.42,-258.76 56.43,-14.21 94.01,9.57 -0.42,253.08 -58.79,21.77" style="fill:#100f0d;fill-opacity:1;fill-rule:nonzero;stroke:none" transform="matrix(0.13333333,0,0,-0.13333333,0,1046.72)"></path>
      <path id="SvgjsPath1111" d="m 4161.61,2036.43 42.15,-10.6 77.41,7.87 -0.38,228.39 -45.2,16.73 -74.36,-9.29 z m 39.88,-41.88 -70.72,17.8 -0.46,284.44 108.93,13.61 72.4,-26.81 0.45,-277.78 -110.6,-11.26" style="fill:#100f0d;fill-opacity:1;fill-rule:nonzero;stroke:none" transform="matrix(0.13333333,0,0,-0.13333333,0,1046.72)"></path>
      <path id="SvgjsPath1110" d="m 4165.75,2077.92 -358.47,328.35 -58.66,13.32 -7.13,161.06 91.92,12.84 52.14,-11.73 2.18,-49.33 0.1,-2.15 295.98,-253.75 -18.06,-198.61" style="fill:#100f0d;fill-opacity:1;fill-rule:nonzero;stroke:none" transform="matrix(0.13333333,0,0,-0.13333333,0,1046.72)"></path>
      <path id="SvgjsPath1109" d="m 3763.52,2432.04 51.17,-11.62 3.02,-2.77 335.49,-307.29 14.51,159.63 -295.03,252.94 -2.04,46.36 -37.88,8.52 -75.23,-10.51 z m 414.79,-386.56 -378.44,346.64 -66.16,15.02 -8.27,186.86 108.62,15.17 66.39,-14.94 2.51,-56.58 296.94,-254.59 -21.59,-237.58" style="fill:#100f0d;fill-opacity:1;fill-rule:nonzero;stroke:none" transform="matrix(0.13333333,0,0,-0.13333333,0,1046.72)"></path>
      <path id="SvgjsPath1108" d="m 3923.66,2151.77 -91.65,-11.45 0.42,-258.76 56.43,-14.21 94.01,9.57 -0.42,253.08 -58.79,21.77" style="fill:#100f0d;fill-opacity:1;fill-rule:nonzero;stroke:none" transform="matrix(0.13333333,0,0,-0.13333333,0,1046.72)"></path>
      <path id="SvgjsPath1107" d="m 3847.85,1893.6 42.15,-10.61 77.41,7.88 -0.38,228.38 -45.2,16.73 -74.35,-9.28 z m 39.88,-41.89 -70.72,17.81 -0.46,284.44 108.93,13.6 72.4,-26.8 0.45,-277.78 -110.6,-11.27" style="fill:#100f0d;fill-opacity:1;fill-rule:nonzero;stroke:none" transform="matrix(0.13333333,0,0,-0.13333333,0,1046.72)"></path>
      <path id="SvgjsPath1106" d="m 3847.85,1933.12 -336.51,321.29 -58.66,13.32 -7.13,161.06 91.92,12.83 52.14,-11.72 2.18,-49.33 0.09,-2.15 295.24,-262.74 -39.27,-182.56" style="fill:#100f0d;fill-opacity:1;fill-rule:nonzero;stroke:none" transform="matrix(0.13333333,0,0,-0.13333333,0,1046.72)"></path>
      <path id="SvgjsPath1105" d="m 3467.58,2280.17 51.34,-11.65 319.64,-305.18 31.58,146.79 -293.38,261.08 -2.06,46.22 -37.88,8.52 -75.23,-10.51 z m 389.57,-377.27 -353.39,337.39 -65.99,14.99 -8.27,186.86 108.62,15.17 66.39,-14.93 2.51,-56.76 297.09,-264.39 -46.96,-218.33" style="fill:#100f0d;fill-opacity:1;fill-rule:nonzero;stroke:none" transform="matrix(0.13333333,0,0,-0.13333333,0,1046.72)"></path>
      <path id="SvgjsPath1104" d="m 3037.31,6003.62 604.82,-111.54 -604.82,-165.25 z" style="fill:#ce3642;fill-opacity:1;fill-rule:nonzero;stroke:none" transform="matrix(0.13333333,0,0,-0.13333333,0,1046.72)"></path>
      <path id="SvgjsPath1103" d="m 3052.75,5985.07 v -238.01 l 520.1,142.1 z m -30.88,-278.46 v 315.56 l 689.54,-127.16 -689.54,-188.4" style="fill:#100f0d;fill-opacity:1;fill-rule:nonzero;stroke:none" transform="matrix(0.13333333,0,0,-0.13333333,0,1046.72)"></path>
      <path id="SvgjsPath1102" d="m 3036.44,5301.32 v 749.12" style="fill:#dadad8;fill-opacity:1;fill-rule:nonzero;stroke:none" transform="matrix(0.13333333,0,0,-0.13333333,0,1046.72)"></path>
      <path id="SvgjsPath1101" d="M 3051.88,5301.32 H 3021 v 749.12 h 30.88 v -749.12" style="fill:#100f0d;fill-opacity:1;fill-rule:nonzero;stroke:none" transform="matrix(0.13333333,0,0,-0.13333333,0,1046.72)"></path>
      <path id="SvgjsPath1100" d="m 3296.66,3814.83 c -44.27,-15.47 -92.95,11.14 -99.77,57.54 -0.06,0.39 -0.11,0.78 -0.17,1.17 -10.13,75.13 38.4,168.3 105.8,202.63 17.47,8.89 35.9,14.73 55.84,11.18 30.13,-5.37 51.35,-29.56 56.49,-63.6 11.37,-75.27 -38.19,-170.83 -106.91,-204.29 -3.65,-1.77 -7.43,-3.28 -11.28,-4.63" style="fill:#211d1d;fill-opacity:1;fill-rule:nonzero;stroke:none" transform="matrix(0.13333333,0,0,-0.13333333,0,1046.72)"></path>
      <path id="SvgjsPath1099" d="m 3659.04,3605.45 c -44.27,-15.47 -92.95,11.15 -99.77,57.54 -0.06,0.39 -0.11,0.78 -0.16,1.18 -10.14,75.12 38.39,168.29 105.8,202.62 17.46,8.89 35.9,14.74 55.83,11.18 30.13,-5.37 51.36,-29.56 56.5,-63.6 11.36,-75.26 -38.2,-170.83 -106.92,-204.29 -3.65,-1.77 -7.42,-3.28 -11.28,-4.63" style="fill:#211d1d;fill-opacity:1;fill-rule:nonzero;stroke:none" transform="matrix(0.13333333,0,0,-0.13333333,0,1046.72)"></path>
      <path id="SvgjsPath1098" d="m 2734.82,3656.02 c 0.19,0.7 0.38,1.4 0.59,2.09 10.98,37.82 52.42,57.93 89.86,45.67 38.15,-12.49 65.15,-39.46 86.56,-72.33 27.56,-42.34 43.7,-88.14 35.06,-139.98 -8.48,-50.92 -50.63,-74.29 -98.49,-54.96 -49.85,20.13 -80.66,59.72 -100.74,107.45 -5.14,12.23 -8.81,25.08 -11.94,37.53 -6.16,24.45 -7.4,50.17 -0.9,74.53" style="fill:#211d1d;fill-opacity:1;fill-rule:nonzero;stroke:none" transform="matrix(0.13333333,0,0,-0.13333333,0,1046.72)"></path>
      <path id="SvgjsPath1097" d="m 2377.8,3825.16 c 0.18,0.7 0.38,1.4 0.58,2.09 10.98,37.83 52.43,57.93 89.86,45.67 38.15,-12.49 65.16,-39.46 86.56,-72.33 27.57,-42.34 43.7,-88.14 35.06,-139.98 -8.48,-50.92 -50.62,-74.29 -98.49,-54.96 -49.85,20.13 -80.66,59.73 -100.73,107.46 -5.15,12.22 -8.81,25.07 -11.95,37.52 -6.16,24.45 -7.4,50.17 -0.89,74.53" style="fill:#211d1d;fill-opacity:1;fill-rule:nonzero;stroke:none" transform="matrix(0.13333333,0,0,-0.13333333,0,1046.72)"></path>
      <path id="SvgjsPath1096" d="m 2734.38,4055.36 c 0.19,0.7 0.38,1.4 0.58,2.09 10.99,37.83 52.43,57.93 89.86,45.67 38.15,-12.49 65.16,-39.46 86.57,-72.33 27.56,-42.34 43.69,-88.14 35.06,-139.98 -8.49,-50.92 -50.63,-74.29 -98.5,-54.96 -49.85,20.13 -80.66,59.73 -100.73,107.46 -5.14,12.22 -8.81,25.07 -11.95,37.52 -6.16,24.45 -7.4,50.17 -0.89,74.53" style="fill:#211d1d;fill-opacity:1;fill-rule:nonzero;stroke:none" transform="matrix(0.13333333,0,0,-0.13333333,0,1046.72)"></path>
      <path id="SvgjsPath1095" d="m 2377.8,4217.85 c 0.18,0.7 0.38,1.4 0.58,2.09 10.98,37.83 52.43,57.93 89.86,45.68 38.15,-12.49 65.16,-39.46 86.56,-72.34 27.57,-42.33 43.7,-88.14 35.06,-139.98 -8.48,-50.92 -50.62,-74.28 -98.49,-54.96 -49.85,20.13 -80.66,59.73 -100.73,107.46 -5.15,12.23 -8.81,25.07 -11.95,37.52 -6.16,24.45 -7.4,50.18 -0.89,74.53" style="fill:#211d1d;fill-opacity:1;fill-rule:nonzero;stroke:none" transform="matrix(0.13333333,0,0,-0.13333333,0,1046.72)"></path>
      <path id="SvgjsPath1094" d="m 3169.53,4878.01 c -32.12,-10.88 -67.48,9.12 -72.42,42.67 -0.04,0.29 -0.08,0.57 -0.12,0.86 -7.45,55.27 28.25,123.82 77.84,149.07 12.85,6.54 26.41,10.84 41.07,8.23 22.17,-3.95 37.79,-21.75 41.57,-46.79 8.36,-55.37 -28.1,-125.68 -78.66,-150.3 -2.99,-1.45 -6.1,-2.66 -9.28,-3.74" style="fill:#211d1d;fill-opacity:1;fill-rule:nonzero;stroke:none" transform="matrix(0.13333333,0,0,-0.13333333,0,1046.72)"></path>
      <path id="SvgjsPath1093" d="m 3361.8,4731.6 c -32.12,-10.88 -67.49,9.11 -72.42,42.67 -0.04,0.28 -0.08,0.57 -0.12,0.86 -7.46,55.27 28.24,123.82 77.83,149.07 12.85,6.54 26.41,10.84 41.08,8.23 22.17,-3.96 37.78,-21.75 41.56,-46.79 8.37,-55.38 -28.09,-125.68 -78.65,-150.3 -3,-1.45 -6.11,-2.67 -9.28,-3.74" style="fill:#211d1d;fill-opacity:1;fill-rule:nonzero;stroke:none" transform="matrix(0.13333333,0,0,-0.13333333,0,1046.72)"></path>
      <path id="SvgjsPath1092" d="m 3525.3,4577.03 c -32.12,-10.88 -67.48,9.11 -72.42,42.67 -0.04,0.28 -0.08,0.57 -0.12,0.86 -7.45,55.27 28.25,123.82 77.84,149.07 12.85,6.54 26.41,10.84 41.08,8.23 22.16,-3.96 37.78,-21.75 41.56,-46.79 8.36,-55.38 -28.1,-125.68 -78.66,-150.3 -2.99,-1.45 -6.1,-2.67 -9.28,-3.74" style="fill:#211d1d;fill-opacity:1;fill-rule:nonzero;stroke:none" transform="matrix(0.13333333,0,0,-0.13333333,0,1046.72)"></path>
      <path id="SvgjsPath1091" d="m 2523.52,5177.74 c 0.27,0.94 0.57,1.87 0.88,2.8 7.45,22.12 31.66,33.73 54.12,27.39 20.81,-5.88 36.85,-18.9 49.98,-35.59 23.06,-29.3 36.76,-61.89 32.03,-100.17 -4.15,-33.65 -36.31,-50.93 -67.22,-37 -33.89,15.28 -53.67,43.69 -65.95,77.7 -1.81,5 -3.17,10.16 -4.33,15.38 -3.65,16.31 -4.2,33.44 0.49,49.49" style="fill:#211d1d;fill-opacity:1;fill-rule:nonzero;stroke:none" transform="matrix(0.13333333,0,0,-0.13333333,0,1046.72)"></path>
      <path id="SvgjsPath1090" d="m 2791.05,5065.66 c 0.28,0.94 0.57,1.87 0.88,2.8 7.45,22.12 31.66,33.72 54.12,27.38 20.82,-5.87 36.85,-18.89 49.99,-35.58 23.05,-29.3 36.76,-61.89 32.03,-100.17 -4.15,-33.65 -36.32,-50.94 -67.22,-37 -33.9,15.28 -53.68,43.69 -65.96,77.7 -1.8,5 -3.16,10.16 -4.33,15.38 -3.64,16.31 -4.19,33.44 0.49,49.49" style="fill:#211d1d;fill-opacity:1;fill-rule:nonzero;stroke:none" transform="matrix(0.13333333,0,0,-0.13333333,0,1046.72)"></path>
      <path id="SvgjsPath1089" d="m 2790.22,4848.01 c 0.28,0.94 0.57,1.87 0.88,2.8 7.45,22.12 31.66,33.72 54.12,27.38 20.82,-5.87 36.85,-18.89 49.99,-35.58 23.05,-29.3 36.76,-61.89 32.03,-100.17 -4.15,-33.65 -36.32,-50.94 -67.22,-37 -33.9,15.28 -53.68,43.69 -65.96,77.7 -1.8,5 -3.16,10.16 -4.33,15.38 -3.64,16.31 -4.19,33.44 0.49,49.49" style="fill:#211d1d;fill-opacity:1;fill-rule:nonzero;stroke:none" transform="matrix(0.13333333,0,0,-0.13333333,0,1046.72)"></path>
      <path id="SvgjsPath1088" d="m 2527.18,4962.52 c 0.27,0.95 0.57,1.88 0.88,2.81 7.45,22.11 31.66,33.72 54.12,27.38 20.81,-5.87 36.85,-18.89 49.98,-35.59 23.06,-29.3 36.76,-61.88 32.03,-100.16 -4.15,-33.65 -36.31,-50.94 -67.22,-37 -33.89,15.28 -53.67,43.69 -65.95,77.7 -1.81,5 -3.17,10.16 -4.33,15.38 -3.65,16.31 -4.2,33.44 0.49,49.48" style="fill:#211d1d;fill-opacity:1;fill-rule:nonzero;stroke:none" transform="matrix(0.13333333,0,0,-0.13333333,0,1046.72)"></path>
      <path id="SvgjsPath1087" d="m 2518.01,4747.31 c 0.28,0.94 0.57,1.88 0.88,2.8 7.45,22.12 31.66,33.73 54.12,27.39 20.82,-5.88 36.85,-18.89 49.99,-35.59 23.05,-29.3 36.76,-61.88 32.03,-100.17 -4.15,-33.64 -36.32,-50.93 -67.22,-37 -33.9,15.28 -53.68,43.7 -65.96,77.71 -1.8,5 -3.16,10.16 -4.33,15.37 -3.64,16.32 -4.19,33.44 0.49,49.49" style="fill:#211d1d;fill-opacity:1;fill-rule:nonzero;stroke:none" transform="matrix(0.13333333,0,0,-0.13333333,0,1046.72)"></path>
      <path id="SvgjsPath1086" d="m 2780.81,4630.3 c 0.27,0.94 0.57,1.87 0.88,2.8 7.44,22.11 31.66,33.72 54.12,27.38 20.81,-5.87 36.85,-18.89 49.98,-35.58 23.05,-29.3 36.76,-61.89 32.03,-100.17 -4.15,-33.65 -36.31,-50.94 -67.22,-37 -33.89,15.28 -53.68,43.69 -65.95,77.7 -1.81,5 -3.17,10.16 -4.33,15.38 -3.65,16.31 -4.2,33.44 0.49,49.49" style="fill:#211d1d;fill-opacity:1;fill-rule:nonzero;stroke:none" transform="matrix(0.13333333,0,0,-0.13333333,0,1046.72)"></path>
      <path id="SvgjsPath1085" d="m 2415.67,2792.67 c 0.18,0.7 0.38,1.4 0.58,2.09 10.98,37.83 52.43,57.93 89.86,45.67 38.15,-12.49 65.16,-39.46 86.56,-72.33 27.57,-42.34 43.7,-88.14 35.06,-139.98 -8.48,-50.92 -50.62,-74.29 -98.49,-54.96 -49.85,20.13 -80.66,59.73 -100.73,107.46 -5.15,12.22 -8.81,25.07 -11.95,37.52 -6.16,24.45 -7.4,50.17 -0.89,74.53" style="fill:#211d1d;fill-opacity:1;fill-rule:nonzero;stroke:none" transform="matrix(0.13333333,0,0,-0.13333333,0,1046.72)"></path>
    </g>
  </g>
</svg><style>@media (prefers-color-scheme: light) { :root { filter: none; } }
@media (prefers-color-scheme: dark) { :root { filter: none; } }
</style></svg>