<svg xmlns="http://www.w3.org/2000/svg" id="svg1" width="800.987" height="1046.72"><svg id="SvgjsSvg1169" width="800.987" height="1046.72" viewBox="0 0 800.987 1046.72"><g id="SvgjsG1165"><g id="SvgjsG1164"><g id="Spillforening" style="display:inline"><path id="text__S_pillforening" d="m270.633 1068.74 31.09 36.8 217.949-184.138c26.883-22.722 51.48-20.882 73.805 5.547l47.238 55.903c19.527 23.098 20.734 45.128 3.648 66.038l-122.187 155.38c-44.547 55.42-41.098 113.56 10.32 174.41l32.289 38.21c62.965 74.53 131.485 80.53 205.555 17.95l168.418-142.29 12.168-58.8-31.082-36.8-203.809 172.19c-26.883 22.72-51.488 20.86-73.805-5.55l-40.656-48.12c-19.531-23.12-20.754-45.13-3.648-66.04l124.082-154.57c43.265-55.96 39.398-114.137-11.617-174.52l-39.457-46.699c-62.981-74.539-131.504-80.512-205.559-17.942L282.809 1009.94z" style="fill:#100f0d;fill-opacity:1;fill-rule:nonzero;stroke:none" transform="matrix(.13333 0 0 -.13333 0 1046.72)"/><path id="text_S_p_illforening" d="M848.879 673.563 994.832 585.5c30.658-18.5 55.408-12.16 74.238 19.051l112.47 186.398c18.5 30.653 12.42 55.25-18.25 73.75l-145.94 88.063zM635.543 493.941 981.09 1066.61l224.47-135.45c80.9-48.808 96.95-113.68 48.13-194.578L1150.8 566.051q-73.709-122.163-195.066-48.922l-147.527 89.012-95.723-158.629z" style="fill:#100f0d;fill-opacity:1;fill-rule:nonzero;stroke:none" transform="matrix(.13333 0 0 -.13333 0 1046.72)"/><path id="text_Sp_i_llforening" d="m1476.95 887.051 40.91 89.269 87.58-40.129-40.9-89.269zm-234.32-520.34 201.42 439.629 81.69-37.43-201.41-439.629z" style="fill:#100f0d;fill-opacity:1;fill-rule:nonzero;stroke:none" transform="matrix(.13333 0 0 -.13333 0 1046.72)"/><path id="text_Spi_l_lforening" d="m1531.01 400.223 189.55 505.726 84.14-31.539L1611.91 360c-14.52-38.75-2.57-66.641 35.91-83.699l-27.64-73.731c-95.42 35.77-125.14 101.641-89.17 197.653" style="fill:#100f0d;fill-opacity:1;fill-rule:nonzero;stroke:none" transform="matrix(.13333 0 0 -.13333 0 1046.72)"/><path id="text_Spil_l_forening" d="m1789.03 309.672 151.66 518.348 86.25-25.231-154.27-527.238c-11.62-39.711 2.36-66.649 41.99-80.801l-22.11-75.59c-97.8 28.621-132.31 92.121-103.52 190.512" style="fill:#100f0d;fill-opacity:1;fill-rule:nonzero;stroke:none" transform="matrix(.13333 0 0 -.13333 0 1046.72)"/><path id="text_Spill_f_orening" d="m2031.85 92.992 105.4 532.52c18.47 93.289 74.05 130.777 166.74 112.429l84.51-16.722 35.69-39.168-9.17-46.352-123.59 24.453c-35.75 7.078-57.15-7.261-64.23-43l-13.3-67.242 168.11-33.281-15.29-77.238-168.11 33.269L2120 75.54z" style="fill:#100f0d;fill-opacity:1;fill-rule:nonzero;stroke:none" transform="matrix(.13333 0 0 -.13333 0 1046.72)"/><path id="text_Spillf_o_rening" d="M2529.86 147.313c-2.35-36.383 14.65-55.723 51.03-58.063l124.81-8.031c35.73-2.297 54.79 14.722 57.13 51.101l13.97 217.25c2.3 35.731-14.43 54.77-50.17 57.071l-124.81 8.031c-36.36 2.34-55.69-14.371-57.99-50.113zm-89.08 15.007 12.79 198.762c6.06 94.297 56.25 138.418 150.55 132.34l129.42-8.32c94.3-6.071 138.4-56.25 132.34-150.551l-12.79-198.762c-6.11-94.918-56.31-139.34-150.61-133.27l-129.42 8.333c-94.3 6.078-138.39 56.558-132.28 151.468" style="fill:#100f0d;fill-opacity:1;fill-rule:nonzero;stroke:none" transform="matrix(.13333 0 0 -.13333 0 1046.72)"/><path id="text_Spillfo_r_ening" d="m3029.36 0-28.26 425.199c19.01 39.641 58.72 61.473 119.12 65.492l95.21 6.321 44.6-28.59 3.14-47.141-120.16-7.992c-24.03-1.598-40.58-8.898-49.61-21.867l25.63-385.453z" style="fill:#100f0d;fill-opacity:1;fill-rule:nonzero;stroke:none" transform="matrix(.13333 0 0 -.13333 0 1046.72)"/><path id="text_Spillfor_e_ning" d="m3463.97 323.652 219.87 43.789-14.12 70.86c-6.99 35.121-28.06 49.199-63.18 42.199l-113.57-22.609q-53.61-10.68-43.11-63.36zm-61.53-151.101-38.9 195.34c-18.45 92.672 18.65 148.23 111.33 166.679l118.11 23.52c92.67 18.461 148.23-18.649 166.68-111.32l26.06-130.829-308-61.339 14.66-73.59c7.12-35.742 28.53-50.051 64.28-42.93l236.21 47.047 9.23-46.34-34.73-39.027-198.06-39.45c-92.67-18.453-148.3 18.957-166.87 112.239" style="fill:#100f0d;fill-opacity:1;fill-rule:nonzero;stroke:none" transform="matrix(.13333 0 0 -.13333 0 1046.72)"/><path id="text_Spillfore_n_ing" d="m4019.48 166.309-168.14 453.402 245.8 91.16c88.6 32.859 149.32 4.988 182.18-83.601l118.86-320.508-84.26-31.25-122.07 329.187c-12.46 33.582-35.49 44.153-69.07 31.692l-159.81-59.262 140.75-379.578z" style="fill:#100f0d;fill-opacity:1;fill-rule:nonzero;stroke:none" transform="matrix(.13333 0 0 -.13333 0 1046.72)"/><path id="text_Spillforen_i_ng" d="m4564.98 389.559-218.52 431.382 80.15 40.61 218.53-431.379zm-261.17 507.39-44.38 87.602 85.95 43.529 44.37-87.58z" style="fill:#100f0d;fill-opacity:1;fill-rule:nonzero;stroke:none" transform="matrix(.13333 0 0 -.13333 0 1046.72)"/><path id="text_Spillforeni_n_g" d="m4812.12 516.902-265.2 404.36 219.22 143.788c79 51.81 144.43 38.23 196.25-40.79l187.48-285.838-75.15-49.293-192.56 293.601c-19.63 29.94-44.45 35.1-74.39 15.45l-142.53-93.481 222.02-338.508z" style="fill:#100f0d;fill-opacity:1;fill-rule:nonzero;stroke:none" transform="matrix(.13333 0 0 -.13333 0 1046.72)"/><path id="text_Spillforenin_g_" d="M5280 1015.83c24.52-26.978 50.23-28.221 77.22-3.71l126.86 115.23-219.25 241.37-126.86-115.22c-26.98-24.51-28.41-50.02-4.33-76.53zm-72.73-53.56-133.92 147.43c-63.53 69.94-60.1 136.88 10.31 200.84l194.74 176.89 353.79-389.49c63.93-70.39 60.7-137.588-9.68-201.518l-134.4-122.102-52.73-5.32-31.76 34.973 164.57 149.488c26.97 24.488 28.2 50.229 3.7 77.199l-34.87 38.4-128.23-116.478c-70.41-63.941-137.58-60.723-201.52 9.688" style="fill:#100f0d;fill-opacity:1;fill-rule:nonzero;stroke:none" transform="matrix(.13333 0 0 -.13333 0 1046.72)"/></g><g id="ColoredBackground" style="display:inline"><path id="BackgroundRed" d="M4025.58 6643.71 235.148 2691.15S-795.063 4908.24 1470.19 6398.24c0 0 1011.43 754.97 2555.39 245.47" style="display:inline;fill:#ed1954;fill-opacity:1;fill-rule:nonzero;stroke:none" transform="matrix(.13333 0 0 -.13333 0 1046.72)"/><path id="BackgroundBlue" d="M4025.58 6643.71s736.53-277.16 954.96-569.78c156.7-209.93 64.06-24.65 64.06-24.65L968.531 1633.54s-554.14 479.3-733.383 1057.61z" style="display:inline;fill:#548ed2;fill-opacity:1;fill-rule:nonzero;stroke:none" transform="matrix(.13333 0 0 -.13333 0 1046.72)"/><path id="BackgroundGreen" d="M5021.44 6033.84s411.65-213.19 702.51-1026.74L2355.91 940.52s-823.83 152.63-1425.976 723.9z" style="display:inline;fill:#57c03d;fill-opacity:1;fill-rule:nonzero;stroke:none" transform="matrix(.13333 0 0 -.13333 0 1046.72)"/><path id="BackgroundYellow" d="m1982.34 1020.01 3741.61 4048.85s1063.69-2074.29-1026.8-3708.66c0 0-1227.5-865.981-2714.81-340.19" style="display:inline;fill:#e2e417;fill-opacity:1;fill-rule:nonzero;stroke:none" transform="matrix(.13333 0 0 -.13333 0 1046.72)"/><path id="Circle" d="M3003.69 6805.83c-1639.21 0-2972.811-1333.6-2972.811-2972.82 0-1639.21 1333.601-2972.811 2972.811-2972.811 1639.22 0 2972.82 1333.601 2972.82 2972.811 0 1639.22-1333.6 2972.82-2972.82 2972.82m0-5976.51c-405.49 0-798.86 79.422-1169.17 236.05-357.68 151.28-678.91 367.86-954.758 643.71-275.852 275.85-492.426 597.07-643.711 954.76C79.418 3034.15 0 3427.53 0 3833.01c0 405.49 79.418 798.86 236.051 1169.18 151.285 357.68 367.859 678.9 643.711 954.76 275.848 275.84 597.078 492.41 954.758 643.71 370.31 156.62 763.68 236.05 1169.17 236.05s798.85-79.43 1169.18-236.05c357.68-151.3 678.9-367.87 954.75-643.71 275.85-275.86 492.42-597.08 643.71-954.76 156.63-370.32 236.06-763.69 236.06-1169.18 0-405.48-79.43-798.86-236.06-1169.17-151.29-357.69-367.86-678.91-643.71-954.76s-597.07-492.43-954.75-643.71c-370.33-156.628-763.69-236.05-1169.18-236.05" style="display:inline;fill:#100f0d;fill-opacity:1;fill-rule:nonzero;stroke:none" transform="matrix(.13333 0 0 -.13333 0 1046.72)"/></g><g id="Slottsfjellet" style="display:inline"><path id="text__S_lottsfjellet" d="m773.992 6464.8-27.746 39.37 231.805 163.34c28.609 20.15 32.949 44.35 13.027 72.64l-42.152 59.82c-17.43 24.73-38.363 31.51-62.774 20.36l-180.246-78.28c-64.535-28.85-119.734-10.69-165.625 54.44l-28.812 40.89c-56.192 79.77-44.918 147.41 33.855 202.91l179.133 126.21 59.727-3.25 27.75-39.37-216.762-152.73c-28.602-20.16-32.938-44.37-13.02-72.64l36.282-51.49c17.429-24.74 38.355-31.54 62.781-20.37l179.93 80.32c64.722 27.47 119.871 8.91 165.405-55.71l35.21-49.98c56.21-79.78 44.9-147.42-33.86-202.92l-194.181-136.81z" style="fill:#100f0d;fill-opacity:1;fill-rule:nonzero;stroke:none" transform="matrix(.13333 0 0 -.13333 0 1046.72)"/><path id="text_S_l_ottsfjellet" d="m1169.03 6857.11-260.573 473.05 78.223 43.1 265.05-481.17c19.97-36.25 48.82-45.4 86.57-27.41l38-68.97c-88.72-48.87-157.79-28.4-207.27 61.4" style="fill:#100f0d;fill-opacity:1;fill-rule:nonzero;stroke:none" transform="matrix(.13333 0 0 -.13333 0 1046.72)"/><path id="text_Sl_o_ttsfjellet" d="M1473.6 7000.87c13.93-33.69 37.61-43.6 71.08-29.78l114.87 47.5c32.89 13.59 42.4 37.22 28.48 70.91l-83.17 201.18c-13.69 33.1-36.99 42.85-69.88 29.26l-114.86-47.48c-33.48-13.85-43.36-37.32-29.68-70.41zm-86.07-25.57-76.09 184.08c-36.09 87.32-10.75 148.92 76.05 184.79l119.11 49.24c86.79 35.88 148.24 10.15 184.33-77.17l76.09-184.06c36.33-87.91 11.1-149.79-75.68-185.66l-119.13-49.24c-86.78-35.88-148.35-9.88-184.68 78.02" style="fill:#100f0d;fill-opacity:1;fill-rule:nonzero;stroke:none" transform="matrix(.13333 0 0 -.13333 0 1046.72)"/><path id="text_Slo_t_tsfjellet" d="m1893.2 7169.07-129.17 479.45 86.23 23.24 40.48-150.28 164.47 44.31 20.49-76.03-164.47-44.32 70.61-262.07c9.48-35.19 31.69-48.07 66.67-38.65l120.9 32.57 12.29-45.61-32.7-41.43-82.67-22.28q-136.02-36.645-173.13 101.1" style="fill:#100f0d;fill-opacity:1;fill-rule:nonzero;stroke:none" transform="matrix(.13333 0 0 -.13333 0 1046.72)"/><path id="text_Slot_t_sfjellet" d="m2250.95 7258.12-78.22 490.33 88.19 14.08 24.51-153.69 168.21 26.84 12.41-77.77-168.21-26.83 42.76-268.04c5.75-35.99 26.48-51.12 62.25-45.41l123.65 19.71 7.45-46.65-36.86-37.77-84.56-13.49c-92.74-14.79-146.6 24.76-161.58 118.69" style="fill:#100f0d;fill-opacity:1;fill-rule:nonzero;stroke:none" transform="matrix(.13333 0 0 -.13333 0 1046.72)"/><path id="text_Slott_s_fjellet" d="m2605.61 7199.33-1.92 47.21 212.5 8.65c36.18 1.46 53.52 20.72 52.01 57.74-1.55 38.25-17.15 59.26-46.79 63l-106.5 13.28c-78.44 10.4-119.14 52.02-122.11 124.84-3.71 91.31 41.65 138.9 136.1 142.74l149.95 6.11 43.59-29.74 1.92-47.21-190.42-7.75c-36.79-1.5-54.44-20.76-52.93-57.78 1.4-34.57 17.54-53.99 48.44-58.3l107.43-13.24c77.18-9.84 117.32-52.7 120.42-128.61 3.74-91.95-41.93-139.85-136.98-143.72l-171.11-6.96z" style="fill:#100f0d;fill-opacity:1;fill-rule:nonzero;stroke:none" transform="matrix(.13333 0 0 -.13333 0 1046.72)"/><path id="text_Slotts_f_jellet" d="m3069.05 7176.72 41.04 541.3c7.18 94.82 57.6 138.71 151.24 131.6l85.38-6.46 39.85-34.62-3.57-47.11-124.85 9.47c-36.13 2.74-55.54-14.06-58.3-50.4l-5.18-68.36 169.84-12.87-5.96-78.51-169.84 12.87-30.61-403.67z" style="fill:#100f0d;fill-opacity:1;fill-rule:nonzero;stroke:none" transform="matrix(.13333 0 0 -.13333 0 1046.72)"/><path id="text_Slottsf_j_ellet" d="m3499.29 7707.3 15.28 97 94.59-14.91-15.29-97zm-182.51-667.1c53.04-6.49 83.75 16.81 92.11 69.89l80.48 510.62 88.21-13.91-78.89-500.55c-17.69-112.25-82.33-159.58-193.87-142.01z" style="fill:#100f0d;fill-opacity:1;fill-rule:nonzero;stroke:none" transform="matrix(.13333 0 0 -.13333 0 1046.72)"/><path id="text_Slottsfj_e_llet" d="m3780.18 7358.25 215.08-58.16 18.86 69.75c9.34 34.57-3.17 56.52-37.52 65.8l-111.1 30.05c-34.96 9.45-57.11-3.13-66.46-37.69zm-121.76-108.15 51.99 192.27c24.67 91.22 82.32 124.57 172.98 100.05l115.54-31.25c90.65-24.51 123.65-82.37 98.99-173.59l-34.83-128.77-301.29 81.48-19.59-72.44c-9.51-35.19 3.2-57.48 38.17-66.94l231.08-62.49-12.33-45.61-48.21-19.58-193.76 52.38c-90.66 24.52-123.56 82.68-98.74 174.49" style="fill:#100f0d;fill-opacity:1;fill-rule:nonzero;stroke:none" transform="matrix(.13333 0 0 -.13333 0 1046.72)"/><path id="text_Slottsfje_l_let" d="m4169.03 7099.18 197.92 502.51 83.09-32.73-201.31-511.13c-15.17-38.5-3.8-66.55 34.15-84.13l-28.86-73.27c-94.23 37.11-122.57 103.36-84.99 198.75" style="fill:#100f0d;fill-opacity:1;fill-rule:nonzero;stroke:none" transform="matrix(.13333 0 0 -.13333 0 1046.72)"/><path id="text_Slottsfjel_l_et" d="m4402.12 7002.13 233.46 487.02 80.53-38.61-237.45-495.38c-17.9-37.3-8.57-66.1 28.02-86.36l-34.04-71.01c-91.33 43.78-114.83 111.89-70.52 204.34" style="fill:#100f0d;fill-opacity:1;fill-rule:nonzero;stroke:none" transform="matrix(.13333 0 0 -.13333 0 1046.72)"/><path id="text_Slottsfjell_e_t" d="M4772.94 6961.09 4962 6843.2l38.23 61.31c18.96 30.39 13.33 55.01-16.88 73.85l-97.65 60.89c-30.73 19.17-55.57 13.55-74.52-16.84zm-147.83-68.29 105.38 169c50.01 80.18 114.85 95.42 194.54 45.74l101.56-63.34c79.69-49.7 94.54-114.63 44.52-194.8l-70.57-113.2-264.85 165.15-39.71-63.66c-19.29-30.94-13.56-55.96 17.17-75.13l203.13-126.67-24.99-40.09-51.83-4.8-170.31 106.21c-79.69 49.68-94.37 114.88-44.04 195.59" style="fill:#100f0d;fill-opacity:1;fill-rule:nonzero;stroke:none" transform="matrix(.13333 0 0 -.13333 0 1046.72)"/><path id="text_Slottsfjelle_t_" d="m5069.44 6599.69 313.73 384.88 69.22-56.43-98.33-120.63 132.03-107.62-49.75-61.04-132.03 107.62-171.5-210.39c-23.03-28.25-20.51-53.79 7.58-76.68l97.06-79.11-29.86-36.63-52.73 2.35-66.36 54.1c-72.8 59.33-79.15 125.86-19.06 199.58" style="fill:#100f0d;fill-opacity:1;fill-rule:nonzero;stroke:none" transform="matrix(.13333 0 0 -.13333 0 1046.72)"/></g><g id="WhiteBackground" style="display:inline"><path id="WhiteBackgroundBottom" d="m3124.26 1979.16 897.03 385.01c35.62 15.29 58.7 50.32 58.7 89.08v978.82c0 35.63-19.15 68.51-50.14 86.08l-166.51 94.43-1570.77-22.57-107.23-52.23c-42.1-20.51-68.81-63.24-68.81-110.07v-942.09c0-51.19 29.42-97.82 75.61-119.87l804.55-384.04c40.17-19.18 86.66-20.1 127.57-2.55" style="display:inline;fill:#fff;fill-opacity:1;fill-rule:nonzero;stroke:none" transform="matrix(.13333 0 0 -.13333 0 1046.72)"/><path id="WhiteBackgroundMiddle" d="m2332.17 3559.44 707.46-343.39a68.55 68.55 0 0 1 58.82-.48l748.38 348.07c16.83 7.83 27.6 24.71 27.6 43.27v880.54c0 22.97-13.6 43.76-34.65 52.96l-211.16 92.27-1160.02-9.03-135.27-60.21c-22.05-9.81-36.25-31.69-36.25-55.82v-892.14c0-23.86 13.63-45.62 35.09-56.04" style="display:inline;fill:#fff;fill-opacity:1;fill-rule:nonzero;stroke:none" transform="matrix(.13333 0 0 -.13333 0 1046.72)"/><path id="WhiteBackgroundTop" d="m2466.02 4589.45 539.05-259.54a87.54 87.54 0 0 1 73.97-.92l518.33 233.83c27.21 12.28 44.57 39.5 44.21 69.34l.55 669.51c.02 27-15.45 51.61-39.79 63.28l-545.75 261.84a76.21 76.21 0 0 1-65.67.12l-523.46-248.69c-21.36-10.15-34.97-31.68-34.97-55.32v-680.09a59.22 59.22 0 0 1 33.53-53.36" style="display:inline;fill:#fff;fill-opacity:1;fill-rule:nonzero;stroke:none" transform="matrix(.13333 0 0 -.13333 0 1046.72)"/></g><g id="DieOutline" style="display:inline"><path id="DieOutlineBottom" d="M2092.552 3451.736A41.251 41.251 0 0 0 2133.803 3492.987L4001.35 3492.987A41.251 41.251 0 0 0 4042.601 3451.736L4042.601 2454.211A41.251 41.251 0 0 0 4005.257 2395.437L3104.921 1972.972A41.251 41.251 0 0 0 3030.232 1972.972L2129.897 2395.437A41.251 41.251 0 0 0 2092.552 2454.211ZM2152.554 2477.898A26.813 26.813 0 0 1 2176.828 2439.694L3043.303 2033.118A26.813 26.813 0 0 1 3091.85 2033.118L3958.326 2439.694A26.813 26.813 0 0 1 3982.6 2477.898L3982.6 3406.173A26.813 26.813 0 0 1 3955.786 3432.986L2179.367 3432.986A26.813 26.813 0 0 1 2152.554 3406.173ZM3084.077 3035.476A16.5 16.5 0 0 0 3100.578 3018.975L3100.578 1971.949A16.5 16.5 0 0 0 3084.077 1955.449L3051.076 1955.449A16.5 16.5 0 0 0 3034.576 1971.949L3034.576 3018.975A16.5 16.5 0 0 0 3051.076 3035.476ZM3060.567 3020.538A16.5 16.5 0 0 0 3038.621 3012.61L2093.472 3456.103A16.5 16.5 0 0 0 2085.543 3478.05L2099.562 3507.925A16.5 16.5 0 0 0 2121.508 3515.853L3066.657 3072.36A16.5 16.5 0 0 0 3074.586 3050.414ZM3060.567 3050.414A16.5 16.5 0 0 0 3068.496 3072.36L4013.645 3515.853A16.5 16.5 0 0 0 4035.592 3507.925L4049.61 3478.05A16.5 16.5 0 0 0 4041.682 3456.103L3096.533 3012.61A16.5 16.5 0 0 0 3074.586 3020.538Z" style="display:inline;fill:#100f0d;fill-opacity:1;fill-rule:nonzero;stroke:none;stroke-opacity:1" transform="matrix(.13333 0 0 -.13333 0 1046.72)"/><path id="DieOutlineMiddle" d="M2287.557 4501.763A33.751 33.751 0 0 0 2321.308 4535.513L3813.845 4535.513A33.751 33.751 0 0 0 3847.596 4501.763L3847.596 3616.74A33.751 33.751 0 0 0 3817.178 3568.366L3097.995 3222.604A33.751 33.751 0 0 0 3037.159 3222.604L2317.975 3568.366A33.751 33.751 0 0 0 2287.557 3616.74ZM2336.308 3635.582A21.938 21.938 0 0 1 2356.08 3604.139L3047.805 3271.579A21.938 21.938 0 0 1 3087.348 3271.579L3779.073 3604.139A21.938 21.938 0 0 1 3798.845 3635.582L3798.845 4464.824A21.938 21.938 0 0 1 3776.907 4486.762L2358.246 4486.762A21.938 21.938 0 0 1 2336.308 4464.824ZM3080.89 4160.504A13.5 13.5 0 0 0 3094.39 4147.004L3094.39 3221.481A13.5 13.5 0 0 0 3080.89 3207.98L3054.264 3207.98A13.5 13.5 0 0 0 3040.764 3221.481L3040.764 4147.004A13.5 13.5 0 0 0 3054.264 4160.504ZM3061.808 4148.506A13.5 13.5 0 0 0 3043.791 4142.188L2288.106 4505.498A13.5 13.5 0 0 0 2281.789 4523.515L2293.326 4547.512A13.5 13.5 0 0 0 2311.342 4553.829L3067.027 4190.519A13.5 13.5 0 0 0 3073.345 4172.502ZM3061.808 4172.502A13.5 13.5 0 0 0 3068.126 4190.519L3823.811 4553.829A13.5 13.5 0 0 0 3841.828 4547.512L3853.365 4523.515A13.5 13.5 0 0 0 3847.047 4505.498L3091.362 4142.188A13.5 13.5 0 0 0 3073.345 4148.506Z" style="display:inline;fill:#100f0d;fill-opacity:1;fill-rule:nonzero;stroke:none;stroke-opacity:1" transform="matrix(.13333 0 0 -.13333 0 1046.72)"/><path id="DieOutlineTop" d="M2467.562 5326.783A26.251 26.251 0 0 0 2491.273 5364.297L3043.865 5626.778A26.251 26.251 0 0 0 3091.288 5626.778L3643.88 5364.297A26.251 26.251 0 0 0 3667.592 5326.783L3667.592 4629.266A26.251 26.251 0 0 0 3643.88 4591.752L3091.288 4329.271A26.251 26.251 0 0 0 3043.865 4329.271L2491.273 4591.752A26.251 26.251 0 0 0 2467.562 4629.266ZM2505.063 4643.782A17.063 17.063 0 0 1 2520.475 4619.398L3052.164 4366.845A17.063 17.063 0 0 1 3082.989 4366.845L3614.678 4619.398A17.063 17.063 0 0 1 3630.091 4643.782L3630.091 5312.267A17.063 17.063 0 0 1 3614.678 5336.651L3082.989 5589.203A17.063 17.063 0 0 1 3052.164 5589.203L2520.475 5336.651A17.063 17.063 0 0 1 2505.063 5312.267ZM3077.702 5068.027A10.5 10.5 0 0 0 3088.202 5057.526L3088.202 4328.508A10.5 10.5 0 0 0 3077.702 4318.008L3057.451 4318.008A10.5 10.5 0 0 0 3046.951 4328.508L3046.951 5057.526A10.5 10.5 0 0 0 3057.451 5068.027ZM3063.232 5058.881A10.5 10.5 0 0 0 3049.243 5053.901L2468.197 5329.898A10.5 10.5 0 0 0 2463.217 5343.888L2471.906 5362.18A10.5 10.5 0 0 0 2485.896 5367.159L3066.942 5091.162A10.5 10.5 0 0 0 3071.921 5077.173ZM3063.232 5077.173A10.5 10.5 0 0 0 3068.212 5091.162L3649.258 5367.159A10.5 10.5 0 0 0 3663.247 5362.18L3671.936 5343.888A10.5 10.5 0 0 0 3666.957 5329.898L3085.911 5053.901A10.5 10.5 0 0 0 3071.921 5058.881ZM2463.217 5362.18A10.5 10.5 0 0 0 2468.197 5376.17L3049.243 5652.166A10.5 10.5 0 0 0 3063.232 5647.187L3071.921 5628.895A10.5 10.5 0 0 0 3066.942 5614.905L2485.896 5338.908A10.5 10.5 0 0 0 2471.906 5343.888ZM3071.921 5647.187A10.5 10.5 0 0 0 3085.911 5652.166L3666.957 5376.17A10.5 10.5 0 0 0 3671.936 5362.18L3663.247 5343.888A10.5 10.5 0 0 0 3649.258 5338.908L3068.212 5614.905A10.5 10.5 0 0 0 3063.232 5628.895Z" style="display:inline;fill:#100f0d;fill-opacity:1;fill-rule:nonzero;stroke:none" transform="matrix(.13333 0 0 -.13333 0 1046.72)"/></g><g id="Flag" style="display:inline"><path id="FlagColor" d="m3037.31 6003.62 604.82-111.54-604.82-165.25z" style="display:inline;fill:#ce3642;fill-opacity:1;fill-rule:nonzero;stroke:none" transform="matrix(.13333 0 0 -.13333 0 1046.72)"/><path id="FlagOutline" d="M3021.006 6050.444v-749.121h30.879v413.496l659.531 180.19-659.531 121.627v33.808zm31.743-65.376 520.108-95.903-520.108-142.105z" style="display:inline;fill:#100f0d;fill-opacity:1;fill-rule:nonzero;stroke:none" transform="matrix(.13333 0 0 -.13333 0 1046.72)"/></g><g id="Pips" style="display:inline"><path id="PipWindowA" d="M3274.35 2945.532c-8.024.37-16.157-.666-24.096-3.179a85.5 85.5 0 0 1-10.005-3.867c-32.14-14.71-52.834-47.85-52.734-84.39l1.098-426.562 154.761 61.67-1.875 385.59c-.12 22.56-11.095 44-29.385 57.32-11.33 8.256-24.39 12.8-37.763 13.418" style="display:inline;fill:#100f0d;fill-opacity:1;fill-rule:nonzero;stroke:none" transform="matrix(.13333 0 0 -.13333 0 1046.72)"/><path id="PipWindowB" d="M3902.315 3148.999c-8.023.368-16.151-.677-24.082-3.194a87 87 0 0 1-10.02-3.867c-32.14-14.72-52.834-47.84-52.734-84.39l1.113-426.562 154.76 61.67-1.889 385.59c-.1 22.56-11.08 44-29.37 57.32-11.338 8.263-24.408 12.82-37.778 13.433" style="display:inline;fill:#100f0d;fill-opacity:1;fill-rule:nonzero;stroke:none" transform="matrix(.13333 0 0 -.13333 0 1046.72)"/><path id="PipDoor" d="M3621.211 2907.358a117 117 0 0 1-26.777-4.468 151 151 0 0 1-16.304-5.815c-53.09-22.4-87.176-73.358-86.836-129.858l2.622-443.467 254.165 86.206-7.104 390.717c-.27 32.74-16.207 63.256-43.697 83.716-21.952 16.335-49.06 24.302-76.069 22.97" style="display:inline;fill:#100f0d;fill-opacity:1;fill-rule:nonzero;stroke:none" transform="matrix(.13333 0 0 -.13333 0 1046.72)"/><path id="Pip2A" d="M3296.66 3814.83c-44.27-15.47-92.95 11.14-99.77 57.54-.06.39-.11.78-.17 1.17-10.13 75.13 38.4 168.3 105.8 202.63 17.47 8.89 35.9 14.73 55.84 11.18 30.13-5.37 51.35-29.56 56.49-63.6 11.37-75.27-38.19-170.83-106.91-204.29-3.65-1.77-7.43-3.28-11.28-4.63" style="display:inline;fill:#211d1d;fill-opacity:1;fill-rule:nonzero;stroke:none" transform="matrix(.13333 0 0 -.13333 0 1046.72)"/><path id="Pip2B" d="M3659.04 3605.45c-44.27-15.47-92.95 11.15-99.77 57.54-.06.39-.11.78-.16 1.18-10.14 75.12 38.39 168.29 105.8 202.62 17.46 8.89 35.9 14.74 55.83 11.18 30.13-5.37 51.36-29.56 56.5-63.6 11.36-75.26-38.2-170.83-106.92-204.29-3.65-1.77-7.42-3.28-11.28-4.63" style="display:inline;fill:#211d1d;fill-opacity:1;fill-rule:nonzero;stroke:none" transform="matrix(.13333 0 0 -.13333 0 1046.72)"/><path id="Pip4D" d="M2734.82 3656.02c.19.7.38 1.4.59 2.09 10.98 37.82 52.42 57.93 89.86 45.67 38.15-12.49 65.15-39.46 86.56-72.33 27.56-42.34 43.7-88.14 35.06-139.98-8.48-50.92-50.63-74.29-98.49-54.96-49.85 20.13-80.66 59.72-100.74 107.45-5.14 12.23-8.81 25.08-11.94 37.53-6.16 24.45-7.4 50.17-.9 74.53" style="display:inline;fill:#211d1d;fill-opacity:1;fill-rule:nonzero;stroke:none" transform="matrix(.13333 0 0 -.13333 0 1046.72)"/><path id="Pip4C" d="M2377.8 3825.16c.18.7.38 1.4.58 2.09 10.98 37.83 52.43 57.93 89.86 45.67 38.15-12.49 65.16-39.46 86.56-72.33 27.57-42.34 43.7-88.14 35.06-139.98-8.48-50.92-50.62-74.29-98.49-54.96-49.85 20.13-80.66 59.73-100.73 107.46-5.15 12.22-8.81 25.07-11.95 37.52-6.16 24.45-7.4 50.17-.89 74.53" style="display:inline;fill:#211d1d;fill-opacity:1;fill-rule:nonzero;stroke:none" transform="matrix(.13333 0 0 -.13333 0 1046.72)"/><path id="Pip4B" d="M2734.38 4055.36c.19.7.38 1.4.58 2.09 10.99 37.83 52.43 57.93 89.86 45.67 38.15-12.49 65.16-39.46 86.57-72.33 27.56-42.34 43.69-88.14 35.06-139.98-8.49-50.92-50.63-74.29-98.5-54.96-49.85 20.13-80.66 59.73-100.73 107.46-5.14 12.22-8.81 25.07-11.95 37.52-6.16 24.45-7.4 50.17-.89 74.53" style="display:inline;fill:#211d1d;fill-opacity:1;fill-rule:nonzero;stroke:none" transform="matrix(.13333 0 0 -.13333 0 1046.72)"/><path id="Pip4A" d="M2377.8 4217.85c.18.7.38 1.4.58 2.09 10.98 37.83 52.43 57.93 89.86 45.68 38.15-12.49 65.16-39.46 86.56-72.34 27.57-42.33 43.7-88.14 35.06-139.98-8.48-50.92-50.62-74.28-98.49-54.96-49.85 20.13-80.66 59.73-100.73 107.46-5.15 12.23-8.81 25.07-11.95 37.52-6.16 24.45-7.4 50.18-.89 74.53" style="display:inline;fill:#211d1d;fill-opacity:1;fill-rule:nonzero;stroke:none" transform="matrix(.13333 0 0 -.13333 0 1046.72)"/><path id="Pip3A" d="M3169.53 4878.01c-32.12-10.88-67.48 9.12-72.42 42.67l-.12.86c-7.45 55.27 28.25 123.82 77.84 149.07 12.85 6.54 26.41 10.84 41.07 8.23 22.17-3.95 37.79-21.75 41.57-46.79 8.36-55.37-28.1-125.68-78.66-150.3-2.99-1.45-6.1-2.66-9.28-3.74" style="display:inline;fill:#211d1d;fill-opacity:1;fill-rule:nonzero;stroke:none" transform="matrix(.13333 0 0 -.13333 0 1046.72)"/><path id="Pip3B" d="M3361.8 4731.6c-32.12-10.88-67.49 9.11-72.42 42.67l-.12.86c-7.46 55.27 28.24 123.82 77.83 149.07 12.85 6.54 26.41 10.84 41.08 8.23 22.17-3.96 37.78-21.75 41.56-46.79 8.37-55.38-28.09-125.68-78.65-150.3-3-1.45-6.11-2.67-9.28-3.74" style="display:inline;fill:#211d1d;fill-opacity:1;fill-rule:nonzero;stroke:none" transform="matrix(.13333 0 0 -.13333 0 1046.72)"/><path id="Pip3C" d="M3525.3 4577.03c-32.12-10.88-67.48 9.11-72.42 42.67l-.12.86c-7.45 55.27 28.25 123.82 77.84 149.07 12.85 6.54 26.41 10.84 41.08 8.23 22.16-3.96 37.78-21.75 41.56-46.79 8.36-55.38-28.1-125.68-78.66-150.3-2.99-1.45-6.1-2.67-9.28-3.74" style="display:inline;fill:#211d1d;fill-opacity:1;fill-rule:nonzero;stroke:none" transform="matrix(.13333 0 0 -.13333 0 1046.72)"/><path id="Pip6A" d="M2523.52 5177.74c.27.94.57 1.87.88 2.8 7.45 22.12 31.66 33.73 54.12 27.39 20.81-5.88 36.85-18.9 49.98-35.59 23.06-29.3 36.76-61.89 32.03-100.17-4.15-33.65-36.31-50.93-67.22-37-33.89 15.28-53.67 43.69-65.95 77.7-1.81 5-3.17 10.16-4.33 15.38-3.65 16.31-4.2 33.44.49 49.49" style="display:inline;fill:#211d1d;fill-opacity:1;fill-rule:nonzero;stroke:none" transform="matrix(.13333 0 0 -.13333 0 1046.72)"/><path id="Pip6B" d="M2791.05 5065.66c.28.94.57 1.87.88 2.8 7.45 22.12 31.66 33.72 54.12 27.38 20.82-5.87 36.85-18.89 49.99-35.58 23.05-29.3 36.76-61.89 32.03-100.17-4.15-33.65-36.32-50.94-67.22-37-33.9 15.28-53.68 43.69-65.96 77.7-1.8 5-3.16 10.16-4.33 15.38-3.64 16.31-4.19 33.44.49 49.49" style="display:inline;fill:#211d1d;fill-opacity:1;fill-rule:nonzero;stroke:none" transform="matrix(.13333 0 0 -.13333 0 1046.72)"/><path id="Pip6C" d="M2527.18 4962.52c.27.95.57 1.88.88 2.81 7.45 22.11 31.66 33.72 54.12 27.38 20.81-5.87 36.85-18.89 49.98-35.59 23.06-29.3 36.76-61.88 32.03-100.16-4.15-33.65-36.31-50.94-67.22-37-33.89 15.28-53.67 43.69-65.95 77.7-1.81 5-3.17 10.16-4.33 15.38-3.65 16.31-4.2 33.44.49 49.48" style="display:inline;fill:#211d1d;fill-opacity:1;fill-rule:nonzero;stroke:none" transform="matrix(.13333 0 0 -.13333 0 1046.72)"/><path id="Pip6D" d="M2790.22 4848.01c.28.94.57 1.87.88 2.8 7.45 22.12 31.66 33.72 54.12 27.38 20.82-5.87 36.85-18.89 49.99-35.58 23.05-29.3 36.76-61.89 32.03-100.17-4.15-33.65-36.32-50.94-67.22-37-33.9 15.28-53.68 43.69-65.96 77.7-1.8 5-3.16 10.16-4.33 15.38-3.64 16.31-4.19 33.44.49 49.49" style="display:inline;fill:#211d1d;fill-opacity:1;fill-rule:nonzero;stroke:none" transform="matrix(.13333 0 0 -.13333 0 1046.72)"/><path id="Pip6E" d="M2518.01 4747.31c.28.94.57 1.88.88 2.8 7.45 22.12 31.66 33.73 54.12 27.39 20.82-5.88 36.85-18.89 49.99-35.59 23.05-29.3 36.76-61.88 32.03-100.17-4.15-33.64-36.32-50.93-67.22-37-33.9 15.28-53.68 43.7-65.96 77.71-1.8 5-3.16 10.16-4.33 15.37-3.64 16.32-4.19 33.44.49 49.49" style="display:inline;fill:#211d1d;fill-opacity:1;fill-rule:nonzero;stroke:none" transform="matrix(.13333 0 0 -.13333 0 1046.72)"/><path id="Pip6F" d="M2780.81 4630.3c.27.94.57 1.87.88 2.8 7.44 22.11 31.66 33.72 54.12 27.38 20.81-5.87 36.85-18.89 49.98-35.58 23.05-29.3 36.76-61.89 32.03-100.17-4.15-33.65-36.31-50.94-67.22-37-33.89 15.28-53.68 43.69-65.95 77.7-1.81 5-3.17 10.16-4.33 15.38-3.65 16.31-4.2 33.44.49 49.49" style="display:inline;fill:#211d1d;fill-opacity:1;fill-rule:nonzero;stroke:none" transform="matrix(.13333 0 0 -.13333 0 1046.72)"/><path id="Pip1A" d="M2415.67 2792.67c.18.7.38 1.4.58 2.09 10.98 37.83 52.43 57.93 89.86 45.67 38.15-12.49 65.16-39.46 86.56-72.33 27.57-42.34 43.7-88.14 35.06-139.98-8.48-50.92-50.62-74.29-98.49-54.96-49.85 20.13-80.66 59.73-100.73 107.46-5.15 12.22-8.81 25.07-11.95 37.52-6.16 24.45-7.4 50.17-.89 74.53" style="display:inline;fill:#211d1d;fill-opacity:1;fill-rule:nonzero;stroke:none" transform="matrix(.13333 0 0 -.13333 0 1046.72)"/></g></g></g></svg><style id="style1">@media (prefers-color-scheme:light){:root{filter:none}}@media (prefers-color-scheme:dark){:root{filter:none}}</style></svg>