<?xml version="1.0" encoding="UTF-8" standalone="no"?>
<svg
   version="1.1"
   width="800.98669"
   height="1046.72"
   id="svg1"
   sodipodi:docname="logo-farger.svg"
   inkscape:version="1.4.3 (0d15f75, 2025-12-25)"
   xmlns:inkscape="http://www.inkscape.org/namespaces/inkscape"
   xmlns:sodipodi="http://sodipodi.sourceforge.net/DTD/sodipodi-0.dtd"
   xmlns="http://www.w3.org/2000/svg"
   xmlns:svg="http://www.w3.org/2000/svg">
  <defs
     id="defs1" />
  <svg
     version="1.1"
     id="SvgjsSvg1169"
     width="800.98669"
     height="1046.72"
     viewBox="0 0 800.98669 1046.72"
     sodipodi:docname="Logo print 30cm x 30 cm - alle farger.eps"
     inkscape:label="SlottsfjelletLogo">
    <defs
       id="SvgjsDefs1168" />
    <sodipodi:namedview
       id="SvgjsSodipodi:namedview1167"
       pagecolor="#ffffff"
       bordercolor="#000000"
       borderopacity="0.25"
       inkscape:showpageshadow="2"
       inkscape:pageopacity="0.0"
       inkscape:pagecheckerboard="true"
       inkscape:deskcolor="#d1d1d1"
       inkscape:zoom="2.086564"
       inkscape:cx="440.19738"
       inkscape:cy="516.63884"
       inkscape:window-width="2544"
       inkscape:window-height="1927"
       inkscape:window-x="0"
       inkscape:window-y="25"
       inkscape:window-maximized="0"
       inkscape:current-layer="svg1">
      <inkscape:page
         x="0"
         y="0"
         inkscape:label="1"
         id="SvgjsInkscape:page1166"
         width="800.98669"
         height="1046.72"
         margin="0"
         bleed="0" />
    </sodipodi:namedview>
    <g
       id="Spillforening"
       style="display:inline">
      <path
         id="text__S_pillforening"
         d="m 270.633,1068.74 31.09,36.8 217.949,-184.138 c 26.883,-22.722 51.48,-20.882 73.805,5.547 l 47.238,55.903 c 19.527,23.098 20.734,45.128 3.648,66.038 l -122.187,155.38 c -44.547,55.42 -41.098,113.56 10.32,174.41 l 32.289,38.21 c 62.965,74.53 131.485,80.53 205.555,17.95 l 168.418,-142.29 12.168,-58.8 -31.082,-36.8 -203.809,172.19 c -26.883,22.72 -51.488,20.86 -73.805,-5.55 l -40.656,-48.12 c -19.531,-23.12 -20.754,-45.13 -3.648,-66.04 L 722.008,1094.86 C 765.273,1038.9 761.406,980.723 710.391,920.34 L 670.934,873.641 C 607.953,799.102 539.43,793.129 465.375,855.699 l -182.566,154.241 -12.176,58.8"
         style="fill:#100f0d;fill-opacity:1;fill-rule:nonzero;stroke:none"
         transform="matrix(0.13333333,0,0,-0.13333333,0,1046.72)" />
      <path
         id="text_S_p_illforening"
         d="M 848.879,673.563 994.832,585.5 c 30.658,-18.5 55.408,-12.16 74.238,19.051 l 112.47,186.398 c 18.5,30.653 12.42,55.25 -18.25,73.75 l -145.94,88.063 z M 635.543,493.941 981.09,1066.61 1205.56,931.16 c 80.9,-48.808 96.95,-113.68 48.13,-194.578 L 1150.8,566.051 c -49.14,-81.442 -114.16,-97.75 -195.066,-48.922 l -147.527,89.012 -95.723,-158.629 -76.941,46.429"
         style="fill:#100f0d;fill-opacity:1;fill-rule:nonzero;stroke:none"
         transform="matrix(0.13333333,0,0,-0.13333333,0,1046.72)" />
      <path
         id="text_Sp_i_llforening"
         d="m 1476.95,887.051 40.91,89.269 87.58,-40.129 -40.9,-89.269 z m -234.32,-520.34 201.42,439.629 81.69,-37.43 -201.41,-439.629 -81.7,37.43"
         style="fill:#100f0d;fill-opacity:1;fill-rule:nonzero;stroke:none"
         transform="matrix(0.13333333,0,0,-0.13333333,0,1046.72)" />
      <path
         id="text_Spi_l_lforening"
         d="M 1531.01,400.223 1720.56,905.949 1804.7,874.41 1611.91,360 c -14.52,-38.75 -2.57,-66.641 35.91,-83.699 l -27.64,-73.731 c -95.42,35.77 -125.14,101.641 -89.17,197.653"
         style="fill:#100f0d;fill-opacity:1;fill-rule:nonzero;stroke:none"
         transform="matrix(0.13333333,0,0,-0.13333333,0,1046.72)" />
      <path
         id="text_Spil_l_forening"
         d="m 1789.03,309.672 151.66,518.348 86.25,-25.231 -154.27,-527.238 c -11.62,-39.711 2.36,-66.649 41.99,-80.801 l -22.11,-75.59 c -97.8,28.621 -132.31,92.121 -103.52,190.512"
         style="fill:#100f0d;fill-opacity:1;fill-rule:nonzero;stroke:none"
         transform="matrix(0.13333333,0,0,-0.13333333,0,1046.72)" />
      <path
         id="text_Spill_f_orening"
         d="m 2031.85,92.9922 105.4,532.5198 c 18.47,93.289 74.05,130.777 166.74,112.429 l 84.51,-16.722 35.69,-39.168 -9.17,-46.352 -123.59,24.453 c -35.75,7.078 -57.15,-7.261 -64.23,-43 L 2213.9,549.91 2382.01,516.629 2366.72,439.391 2198.61,472.66 2120,75.5391 2031.85,92.9922"
         style="fill:#100f0d;fill-opacity:1;fill-rule:nonzero;stroke:none"
         transform="matrix(0.13333333,0,0,-0.13333333,0,1046.72)" />
      <path
         id="text_Spillf_o_rening"
         d="m 2529.86,147.313 c -2.35,-36.383 14.65,-55.7232 51.03,-58.063 l 124.81,-8.0312 c 35.73,-2.2969 54.79,14.7226 57.13,51.1012 l 13.97,217.25 c 2.3,35.731 -14.43,54.77 -50.17,57.071 l -124.81,8.031 c -36.36,2.34 -55.69,-14.371 -57.99,-50.113 z m -89.08,15.007 12.79,198.762 c 6.06,94.297 56.25,138.418 150.55,132.34 l 129.42,-8.32 c 94.3,-6.071 138.4,-56.25 132.34,-150.551 L 2853.09,135.789 C 2846.98,40.8711 2796.78,-3.55078 2702.48,2.51953 l -129.42,8.33207 c -94.3,6.0781 -138.39,56.5586 -132.28,151.4684"
         style="fill:#100f0d;fill-opacity:1;fill-rule:nonzero;stroke:none"
         transform="matrix(0.13333333,0,0,-0.13333333,0,1046.72)" />
      <path
         id="text_Spillfo_r_ening"
         d="m 3029.36,0 -28.26,425.199 c 19.01,39.641 58.72,61.473 119.12,65.492 l 95.21,6.321 44.6,-28.59 3.14,-47.141 -120.16,-7.992 c -24.03,-1.598 -40.58,-8.898 -49.61,-21.867 L 3119.03,5.96875 3029.36,0"
         style="fill:#100f0d;fill-opacity:1;fill-rule:nonzero;stroke:none"
         transform="matrix(0.13333333,0,0,-0.13333333,0,1046.72)" />
      <path
         id="text_Spillfor_e_ning"
         d="m 3463.97,323.652 219.87,43.789 -14.12,70.86 c -6.99,35.121 -28.06,49.199 -63.18,42.199 l -113.57,-22.609 c -35.74,-7.121 -50.11,-28.239 -43.11,-63.36 z m -61.53,-151.101 -38.9,195.34 c -18.45,92.672 18.65,148.23 111.33,166.679 l 118.11,23.52 c 92.67,18.461 148.23,-18.649 166.68,-111.32 l 26.06,-130.829 -308,-61.339 14.66,-73.59 c 7.12,-35.742 28.53,-50.051 64.28,-42.93 l 236.21,47.047 9.23,-46.34 -34.73,-39.0273 -198.06,-39.4492 c -92.67,-18.4531 -148.3,18.957 -166.87,112.2385"
         style="fill:#100f0d;fill-opacity:1;fill-rule:nonzero;stroke:none"
         transform="matrix(0.13333333,0,0,-0.13333333,0,1046.72)" />
      <path
         id="text_Spillfore_n_ing"
         d="m 4019.48,166.309 -168.14,453.402 245.8,91.16 c 88.6,32.859 149.32,4.988 182.18,-83.601 l 118.86,-320.508 -84.26,-31.25 -122.07,329.187 c -12.46,33.582 -35.49,44.153 -69.07,31.692 l -159.81,-59.262 140.75,-379.578 -84.24,-31.242"
         style="fill:#100f0d;fill-opacity:1;fill-rule:nonzero;stroke:none"
         transform="matrix(0.13333333,0,0,-0.13333333,0,1046.72)" />
      <path
         id="text_Spillforen_i_ng"
         d="m 4564.98,389.559 -218.52,431.382 80.15,40.61 218.53,-431.379 z m -261.17,507.39 -44.38,87.602 85.95,43.529 44.37,-87.58 -85.94,-43.551"
         style="fill:#100f0d;fill-opacity:1;fill-rule:nonzero;stroke:none"
         transform="matrix(0.13333333,0,0,-0.13333333,0,1046.72)" />
      <path
         id="text_Spillforeni_n_g"
         d="m 4812.12,516.902 -265.2,404.36 219.22,143.788 c 79,51.81 144.43,38.23 196.25,-40.79 l 187.48,-285.838 -75.15,-49.293 -192.56,293.601 c -19.63,29.94 -44.45,35.1 -74.39,15.45 l -142.53,-93.481 222.02,-338.508 -75.14,-49.289"
         style="fill:#100f0d;fill-opacity:1;fill-rule:nonzero;stroke:none"
         transform="matrix(0.13333333,0,0,-0.13333333,0,1046.72)" />
      <path
         id="text_Spillforenin_g_"
         d="m 5280,1015.83 c 24.52,-26.978 50.23,-28.221 77.22,-3.71 l 126.86,115.23 -219.25,241.37 -126.86,-115.22 c -26.98,-24.51 -28.41,-50.02 -4.33,-76.53 z m -72.73,-53.56 -133.92,147.43 c -63.53,69.94 -60.1,136.88 10.31,200.84 l 194.74,176.89 353.79,-389.49 c 63.93,-70.39 60.7,-137.588 -9.68,-201.518 l -134.4,-122.102 -52.73,-5.32 -31.76,34.973 164.57,149.488 c 26.97,24.488 28.2,50.229 3.7,77.199 l -34.87,38.4 -128.23,-116.478 c -70.41,-63.941 -137.58,-60.723 -201.52,9.688"
         style="fill:#100f0d;fill-opacity:1;fill-rule:nonzero;stroke:none"
         transform="matrix(0.13333333,0,0,-0.13333333,0,1046.72)" />
    </g>
    <g
       id="ColoredBackground"
       style="display:inline">
      <path
         id="BackgroundRed"
         d="M 4025.58,6643.71 235.148,2691.15 c 0,0 -1030.211,2217.09 1235.042,3707.09 0,0 1011.43,754.97 2555.39,245.47"
         style="display:inline;fill:#ed1954;fill-opacity:1;fill-rule:nonzero;stroke:none"
         transform="matrix(0.13333333,0,0,-0.13333333,0,1046.72)" />
      <path
         id="BackgroundBlue"
         d="m 4025.58,6643.71 c 0,0 736.53,-277.16 954.96,-569.78 156.7,-209.93 64.06,-24.65 64.06,-24.65 L 968.531,1633.54 c 0,0 -554.14,479.3 -733.383,1057.61 L 4025.58,6643.71"
         style="display:inline;fill:#548ed2;fill-opacity:1;fill-rule:nonzero;stroke:none"
         transform="matrix(0.13333333,0,0,-0.13333333,0,1046.72)" />
      <path
         id="BackgroundGreen"
         d="m 5021.44,6033.84 c 0,0 411.65,-213.19 702.51,-1026.74 L 2355.91,940.52 c 0,0 -823.83,152.63 -1425.976,723.9 L 5021.44,6033.84"
         style="display:inline;fill:#57c03d;fill-opacity:1;fill-rule:nonzero;stroke:none"
         transform="matrix(0.13333333,0,0,-0.13333333,0,1046.72)" />
      <path
         id="BackgroundYellow"
         d="m 1982.34,1020.01 3741.61,4048.85 c 0,0 1063.69,-2074.29 -1026.8,-3708.66 0,0 -1227.5,-865.981 -2714.81,-340.19"
         style="display:inline;fill:#e2e417;fill-opacity:1;fill-rule:nonzero;stroke:none"
         transform="matrix(0.13333333,0,0,-0.13333333,0,1046.72)" />
      <path
         id="Circle"
         d="M 3003.69,6805.83 C 1364.48,6805.83 30.8789,5472.23 30.8789,3833.01 30.8789,2193.8 1364.48,860.199 3003.69,860.199 c 1639.22,0 2972.82,1333.601 2972.82,2972.811 0,1639.22 -1333.6,2972.82 -2972.82,2972.82 z m 0,-5976.51 c -405.49,0 -798.86,79.422 -1169.17,236.05 -357.68,151.28 -678.91,367.86 -954.758,643.71 C 603.91,1984.93 387.336,2306.15 236.051,2663.84 79.418,3034.15 0,3427.53 0,3833.01 c 0,405.49 79.418,798.86 236.051,1169.18 151.285,357.68 367.859,678.9 643.711,954.76 275.848,275.84 597.078,492.41 954.758,643.71 370.31,156.62 763.68,236.05 1169.17,236.05 405.49,0 798.85,-79.43 1169.18,-236.05 357.68,-151.3 678.9,-367.87 954.75,-643.71 275.85,-275.86 492.42,-597.08 643.71,-954.76 156.63,-370.32 236.06,-763.69 236.06,-1169.18 0,-405.48 -79.43,-798.86 -236.06,-1169.17 C 5620.04,2306.15 5403.47,1984.93 5127.62,1709.08 4851.77,1433.23 4530.55,1216.65 4172.87,1065.37 3802.54,908.742 3409.18,829.32 3003.69,829.32"
         style="display:inline;fill:#100f0d;fill-opacity:1;fill-rule:nonzero;stroke:none"
         transform="matrix(0.13333333,0,0,-0.13333333,0,1046.72)" />
    </g>
    <g
       id="Slottsfjellet"
       style="display:inline">
      <path
         id="text__S_lottsfjellet"
         d="m 773.992,6464.8 -27.746,39.37 231.805,163.34 c 28.609,20.15 32.949,44.35 13.027,72.64 l -42.152,59.82 c -17.43,24.73 -38.363,31.51 -62.774,20.36 l -180.246,-78.28 c -64.535,-28.85 -119.734,-10.69 -165.625,54.44 l -28.812,40.89 c -56.192,79.77 -44.918,147.41 33.855,202.91 l 179.133,126.21 59.727,-3.25 27.75,-39.37 -216.762,-152.73 c -28.602,-20.16 -32.938,-44.37 -13.02,-72.64 l 36.282,-51.49 c 17.429,-24.74 38.355,-31.54 62.781,-20.37 l 179.93,80.32 c 64.722,27.47 119.871,8.91 165.405,-55.71 l 35.21,-49.98 c 56.21,-79.78 44.9,-147.42 -33.86,-202.92 l -194.181,-136.81 -59.727,3.25"
         style="fill:#100f0d;fill-opacity:1;fill-rule:nonzero;stroke:none"
         transform="matrix(0.13333333,0,0,-0.13333333,0,1046.72)" />
      <path
         id="text_S_l_ottsfjellet"
         d="m 1169.03,6857.11 -260.573,473.05 78.223,43.1 265.05,-481.17 c 19.97,-36.25 48.82,-45.4 86.57,-27.41 l 38,-68.97 c -88.72,-48.87 -157.79,-28.4 -207.27,61.4"
         style="fill:#100f0d;fill-opacity:1;fill-rule:nonzero;stroke:none"
         transform="matrix(0.13333333,0,0,-0.13333333,0,1046.72)" />
      <path
         id="text_Sl_o_ttsfjellet"
         d="m 1473.6,7000.87 c 13.93,-33.69 37.61,-43.6 71.08,-29.78 l 114.87,47.5 c 32.89,13.59 42.4,37.22 28.48,70.91 l -83.17,201.18 c -13.69,33.1 -36.99,42.85 -69.88,29.26 l -114.86,-47.48 c -33.48,-13.85 -43.36,-37.32 -29.68,-70.41 z m -86.07,-25.57 -76.09,184.08 c -36.09,87.32 -10.75,148.92 76.05,184.79 l 119.11,49.24 c 86.79,35.88 148.24,10.15 184.33,-77.17 l 76.09,-184.06 c 36.33,-87.91 11.1,-149.79 -75.68,-185.66 l -119.13,-49.24 c -86.78,-35.88 -148.35,-9.88 -184.68,78.02"
         style="fill:#100f0d;fill-opacity:1;fill-rule:nonzero;stroke:none"
         transform="matrix(0.13333333,0,0,-0.13333333,0,1046.72)" />
      <path
         id="text_Slo_t_tsfjellet"
         d="m 1893.2,7169.07 -129.17,479.45 86.23,23.24 40.48,-150.28 164.47,44.31 20.49,-76.03 -164.47,-44.32 70.61,-262.07 c 9.48,-35.19 31.69,-48.07 66.67,-38.65 l 120.9,32.57 12.29,-45.61 -32.7,-41.43 -82.67,-22.28 c -90.68,-24.43 -148.39,9.27 -173.13,101.1"
         style="fill:#100f0d;fill-opacity:1;fill-rule:nonzero;stroke:none"
         transform="matrix(0.13333333,0,0,-0.13333333,0,1046.72)" />
      <path
         id="text_Slot_t_sfjellet"
         d="m 2250.95,7258.12 -78.22,490.33 88.19,14.08 24.51,-153.69 168.21,26.84 12.41,-77.77 -168.21,-26.83 42.76,-268.04 c 5.75,-35.99 26.48,-51.12 62.25,-45.41 l 123.65,19.71 7.45,-46.65 -36.86,-37.77 -84.56,-13.49 c -92.74,-14.79 -146.6,24.76 -161.58,118.69"
         style="fill:#100f0d;fill-opacity:1;fill-rule:nonzero;stroke:none"
         transform="matrix(0.13333333,0,0,-0.13333333,0,1046.72)" />
      <path
         id="text_Slott_s_fjellet"
         d="m 2605.61,7199.33 -1.92,47.21 212.5,8.65 c 36.18,1.46 53.52,20.72 52.01,57.74 -1.55,38.25 -17.15,59.26 -46.79,63 l -106.5,13.28 c -78.44,10.4 -119.14,52.02 -122.11,124.84 -3.71,91.31 41.65,138.9 136.1,142.74 l 149.95,6.11 43.59,-29.74 1.92,-47.21 -190.42,-7.75 c -36.79,-1.5 -54.44,-20.76 -52.93,-57.78 1.4,-34.57 17.54,-53.99 48.44,-58.3 l 107.43,-13.24 c 77.18,-9.84 117.32,-52.7 120.42,-128.61 3.74,-91.95 -41.93,-139.85 -136.98,-143.72 l -171.11,-6.96 -43.6,29.74"
         style="fill:#100f0d;fill-opacity:1;fill-rule:nonzero;stroke:none"
         transform="matrix(0.13333333,0,0,-0.13333333,0,1046.72)" />
      <path
         id="text_Slotts_f_jellet"
         d="m 3069.05,7176.72 41.04,541.3 c 7.18,94.82 57.6,138.71 151.24,131.6 l 85.38,-6.46 39.85,-34.62 -3.57,-47.11 -124.85,9.47 c -36.13,2.74 -55.54,-14.06 -58.3,-50.4 l -5.18,-68.36 169.84,-12.87 -5.96,-78.51 -169.84,12.87 -30.61,-403.67 -89.04,6.76"
         style="fill:#100f0d;fill-opacity:1;fill-rule:nonzero;stroke:none"
         transform="matrix(0.13333333,0,0,-0.13333333,0,1046.72)" />
      <path
         id="text_Slottsf_j_ellet"
         d="m 3499.29,7707.3 15.28,97 94.59,-14.91 -15.29,-97 z m -182.51,-667.1 c 53.04,-6.49 83.75,16.81 92.11,69.89 l 80.48,510.62 88.21,-13.91 -78.89,-500.55 C 3481,6994 3416.36,6946.67 3304.82,6964.24 l 11.96,75.96"
         style="fill:#100f0d;fill-opacity:1;fill-rule:nonzero;stroke:none"
         transform="matrix(0.13333333,0,0,-0.13333333,0,1046.72)" />
      <path
         id="text_Slottsfj_e_llet"
         d="m 3780.18,7358.25 215.08,-58.16 18.86,69.75 c 9.34,34.57 -3.17,56.52 -37.52,65.8 l -111.1,30.05 c -34.96,9.45 -57.11,-3.13 -66.46,-37.69 z m -121.76,-108.15 51.99,192.27 c 24.67,91.22 82.32,124.57 172.98,100.05 l 115.54,-31.25 c 90.65,-24.51 123.65,-82.37 98.99,-173.59 l -34.83,-128.77 -301.29,81.48 -19.59,-72.44 c -9.51,-35.19 3.2,-57.48 38.17,-66.94 l 231.08,-62.49 -12.33,-45.61 -48.21,-19.58 -193.76,52.38 c -90.66,24.52 -123.56,82.68 -98.74,174.49"
         style="fill:#100f0d;fill-opacity:1;fill-rule:nonzero;stroke:none"
         transform="matrix(0.13333333,0,0,-0.13333333,0,1046.72)" />
      <path
         id="text_Slottsfje_l_let"
         d="m 4169.03,7099.18 197.92,502.51 83.09,-32.73 -201.31,-511.13 c -15.17,-38.5 -3.8,-66.55 34.15,-84.13 l -28.86,-73.27 c -94.23,37.11 -122.57,103.36 -84.99,198.75"
         style="fill:#100f0d;fill-opacity:1;fill-rule:nonzero;stroke:none"
         transform="matrix(0.13333333,0,0,-0.13333333,0,1046.72)" />
      <path
         id="text_Slottsfjel_l_et"
         d="m 4402.12,7002.13 233.46,487.02 80.53,-38.61 -237.45,-495.38 c -17.9,-37.3 -8.57,-66.1 28.02,-86.36 l -34.04,-71.01 c -91.33,43.78 -114.83,111.89 -70.52,204.34"
         style="fill:#100f0d;fill-opacity:1;fill-rule:nonzero;stroke:none"
         transform="matrix(0.13333333,0,0,-0.13333333,0,1046.72)" />
      <path
         id="text_Slottsfjell_e_t"
         d="M 4772.94,6961.09 4962,6843.2 l 38.23,61.31 c 18.96,30.39 13.33,55.01 -16.88,73.85 l -97.65,60.89 c -30.73,19.17 -55.57,13.55 -74.52,-16.84 z m -147.83,-68.29 105.38,169 c 50.01,80.18 114.85,95.42 194.54,45.74 l 101.56,-63.34 c 79.69,-49.7 94.54,-114.63 44.52,-194.8 l -70.57,-113.2 -264.85,165.15 -39.71,-63.66 c -19.29,-30.94 -13.56,-55.96 17.17,-75.13 l 203.13,-126.67 -24.99,-40.09 -51.83,-4.8 -170.31,106.21 c -79.69,49.68 -94.37,114.88 -44.04,195.59"
         style="fill:#100f0d;fill-opacity:1;fill-rule:nonzero;stroke:none"
         transform="matrix(0.13333333,0,0,-0.13333333,0,1046.72)" />
      <path
         id="text_Slottsfjelle_t_"
         d="m 5069.44,6599.69 313.73,384.88 69.22,-56.43 -98.33,-120.63 132.03,-107.62 -49.75,-61.04 -132.03,107.62 -171.5,-210.39 c -23.03,-28.25 -20.51,-53.79 7.58,-76.68 l 97.06,-79.11 -29.86,-36.63 -52.73,2.35 -66.36,54.1 c -72.8,59.33 -79.15,125.86 -19.06,199.58"
         style="fill:#100f0d;fill-opacity:1;fill-rule:nonzero;stroke:none"
         transform="matrix(0.13333333,0,0,-0.13333333,0,1046.72)" />
    </g>
    <g
       id="WhiteBackground"
       style="display:inline">
      <path
         id="WhiteBackgroundBottom"
         d="m 3124.26,1979.16 897.03,385.01 c 35.62,15.29 58.7,50.32 58.7,89.08 v 978.82 c 0,35.63 -19.15,68.51 -50.14,86.08 l -166.51,94.43 -1570.77,-22.57 -107.23,-52.23 c -42.1,-20.51 -68.81,-63.24 -68.81,-110.07 v -942.09 c 0,-51.19 29.42,-97.82 75.61,-119.87 l 804.55,-384.04 c 40.17,-19.18 86.66,-20.1 127.57,-2.55"
         style="display:inline;fill:#ffffff;fill-opacity:1;fill-rule:nonzero;stroke:none"
         transform="matrix(0.13333333,0,0,-0.13333333,0,1046.72)" />
      <path
         id="WhiteBackgroundMiddle"
         d="m 2332.17,3559.44 707.46,-343.39 c 18.54,-8.99 40.14,-9.17 58.82,-0.48 l 748.38,348.07 c 16.83,7.83 27.6,24.71 27.6,43.27 v 880.54 c 0,22.97 -13.6,43.76 -34.65,52.96 l -211.16,92.27 -1160.02,-9.03 -135.27,-60.21 c -22.05,-9.81 -36.25,-31.69 -36.25,-55.82 v -892.14 c 0,-23.86 13.63,-45.62 35.09,-56.04"
         style="display:inline;fill:#ffffff;fill-opacity:1;fill-rule:nonzero;stroke:none"
         transform="matrix(0.13333333,0,0,-0.13333333,0,1046.72)" />
      <path
         id="WhiteBackgroundTop"
         d="m 2466.02,4589.45 539.05,-259.54 c 23.31,-11.22 50.39,-11.56 73.97,-0.92 l 518.33,233.83 c 27.21,12.28 44.57,39.5 44.21,69.34 l 0.55,669.51 c 0.02,27 -15.45,51.61 -39.79,63.28 l -545.75,261.84 c -20.75,9.95 -44.88,10 -65.67,0.12 l -523.46,-248.69 c -21.36,-10.15 -34.97,-31.68 -34.97,-55.32 v -680.09 c 0,-22.75 13.03,-43.49 33.53,-53.36"
         style="display:inline;fill:#ffffff;fill-opacity:1;fill-rule:nonzero;stroke:none"
         transform="matrix(0.13333333,0,0,-0.13333333,0,1046.72)" />
    </g>
    <g
       id="DieOutline"
       style="display:inline">
      <path
         id="DieOutlineBottom"
         style="display:inline;fill:#100f0d;fill-opacity:1;fill-rule:nonzero;stroke:none;stroke-opacity:1"
         d="m 3867.3048,3628.0759 -7.9395,-30.9961 162.876,-92.3584 c 6.254,-3.5477 11.9453,-7.8476 16.9776,-12.7442 l -929.9561,-424.2334 c -28.37,-12.93 -60.6863,-12.5081 -88.6963,1.1719 l -866.6602,423.5156 c 9.9665,13.1352 22.9561,24.0375 38.2031,31.4649 l 104.1358,50.7275 -3.9112,30.8203 -3.4277,-0.044 -110.332,-53.7451 c -47.07,-22.92 -77.4903,-71.5805 -77.4903,-123.9405 v -942.0996 c 0,-56.81 33.1343,-109.3288 84.4043,-133.7988 l 804.5508,-384.0381 c 23.13,-11.05 48.1869,-16.5821 73.2569,-16.5821 22.8,0 45.6305,4.5696 67.0605,13.7696 l 897.0264,385.0195 c 41.34,17.75 68.042,58.2815 68.042,103.2715 v 978.8086 c 0,41.11 -22.2039,79.2515 -57.9639,99.5215 z m 189.9023,-161.8213 c 4.7573,-10.589 7.3389,-22.2206 7.3389,-34.1895 v -978.8086 c 0,-32.63 -19.3606,-62.0275 -49.3506,-74.8975 l -897.041,-385.0048 c -13.0957,-5.6247 -26.8185,-9.1413 -40.708,-10.5616 v 1045.1368 c 15.232,1.2895 30.3094,5.1895 44.6191,11.7187 z m -1918.2861,-0.8643 868.0957,-424.2041 c 12.6585,-6.1805 25.9754,-10.2829 39.5361,-12.29 V 1983.0709 c -14.8389,1.7957 -29.4369,5.991 -43.2129,12.5684 l -804.5508,384.0381 c -40.59,19.38 -66.8262,60.9575 -66.8262,105.9375 v 942.0996 c 0,13.0475 2.4458,25.7887 6.9581,37.6758 z"
         transform="matrix(0.13333333,0,0,-0.13333333,0,1046.72)" />
      <path
         id="DieOutlineMiddle"
         style="display:inline;fill:#100f0d;fill-opacity:1;fill-rule:nonzero;stroke:none;stroke-opacity:1"
         d="m 3631.7872,4648.1345 -6.3281,-30.9082 208.1396,-90.9668 c 0.4509,-0.1971 0.8916,-0.4038 1.333,-0.6152 l -727.7344,-331.8604 c -28.54,-13.01 -61.0125,-12.428 -89.0625,1.582 l -691.6552,345.1172 c 3.7642,3.6382 8.1763,6.6586 13.125,8.8623 l 122.4462,55.752 -15.0732,23.6572 -119.9268,-51.2109 c -27.58,-12.28 -45.4101,-39.717 -45.4101,-69.917 v -892.1485 c 0,-29.57 17.1842,-57.0216 43.7842,-69.9316 l 707.4609,-343.3887 c 11.62,-5.63 24.1451,-8.4522 36.6651,-8.4522 12.06,0 24.1252,2.6116 35.4052,7.8516 l 748.3887,348.0762 c 22.19,10.33 36.5186,32.8054 36.5186,57.2754 v 880.5469 c 0,29.11 -17.2314,55.4545 -43.9014,67.1045 z m -1318.9746,-135.3662 691.5381,-345.044 c 13.4719,-6.7146 27.7152,-11.0488 42.2021,-12.9931 v -924.8731 c -0.06,0.029 -0.1158,0.059 -0.1758,0.088 l -707.4609,343.3887 c -16.03,7.79 -26.3965,24.3235 -26.3965,42.1435 v 892.1485 c 0,1.7351 0.1,3.4434 0.293,5.1416 z m 1543.7549,-11.1914 c 1.5784,-4.4596 2.417,-9.2216 2.417,-14.1211 v -880.5469 c 0,-12.5 -7.3268,-24.0022 -18.6768,-29.2822 l -748.374,-348.0616 c -4.6672,-2.1698 -9.5349,-3.6327 -14.4873,-4.3799 v 929.004 c 14.5239,1.4418 28.8907,5.2819 42.5683,11.5136 z"
         transform="matrix(0.13333333,0,0,-0.13333333,0,1046.72)" />
      <path
         id="DieOutlineTop"
         style="display:inline;fill:#100f0d;fill-opacity:1;fill-rule:nonzero;stroke:none"
         d="m 3023.8038,5649.7654 c -13.4713,0.025 -26.9469,-2.9463 -39.5069,-8.9063 L 2460.835,5392.1579 c -26.6,-12.63 -43.7842,-39.8324 -43.7842,-69.2724 v -680.0684 c 0,-28.5 16.5954,-54.9056 42.2754,-67.2656 l 539.0479,-259.5557 c 14.14,-6.81 29.3931,-10.21 44.6631,-10.21 14.42,0 28.8486,3.036 42.3486,9.126 l 518.335,233.833 c 32.8,14.8 53.7357,47.6182 53.3057,83.4082 l 0.542,669.5069 c 0.03,32.74 -19.0296,63.0519 -48.5596,77.2119 l -545.7422,261.8408 c -12.535,6.01 -25.9917,9.0278 -39.4629,9.0528 z m -0.073,-30.8936 c 8.9325,-0.017 17.8618,-2.0258 26.1768,-6.0058 l 545.7422,-261.8409 c 4.6206,-2.216 8.8446,-5.0394 12.583,-8.3642 L 3098.35,5107.4802 c -38.67,-17.84 -82.8426,-17.3949 -121.1426,1.2451 l -512.7539,249.375 c 2.9032,2.4272 6.1268,4.5043 9.624,6.167 l 523.4619,248.6866 c 8.325,3.96 17.2589,5.9354 26.1914,5.9179 z m -574.9951,-287.4756 514.9658,-250.4443 c 18.2849,-8.8898 37.6649,-14.3806 57.3047,-16.4649 v -724.3652 c -3.1348,1.0097 -6.2319,2.2406 -9.2431,3.6914 l -539.0479,259.5557 c -15.06,7.25 -24.7852,22.7382 -24.7852,39.4482 v 680.0684 c 0,2.8835 0.2743,5.7321 0.8057,8.5107 z m 1175.962,-15.1465 c 1.3038,-4.6849 1.9969,-9.5818 1.9921,-14.5605 l -0.5566,-669.6973 c 0.28,-23.72 -13.4877,-45.3428 -35.0977,-55.0928 l -518.3496,-233.833 c -6.6903,-3.017 -13.695,-4.9775 -20.8008,-5.8594 v 726.7969 c 20.2794,1.5191 40.3854,6.6574 59.3995,15.4248 z"
         transform="matrix(0.13333333,0,0,-0.13333333,0,1046.72)" />
    </g>
    <g
       id="Stairs"
       style="display:inline">
      <path
         id="StairsGray"
         d="m 3795.63,2448.05 -241.37,-99.92 381.3,-441.73 248.25,130.9 -388.18,410.75"
         style="display:inline;fill:#dadad8;fill-opacity:1;fill-rule:nonzero;stroke:none"
         transform="matrix(0.13333333,0,0,-0.13333333,0,1046.72)" />
      <path
         id="StairsBlack"
         style="display:inline;fill:#100f0d;fill-opacity:1;fill-rule:nonzero;stroke:none"
         d="m 3834.0528,2609.1745 -108.6181,-15.1758 6.8847,-155.4492 -125.3467,-51.8848 -2.4609,55.708 -66.3867,14.9414 -108.6182,-15.1758 8.2617,-186.8554 65.9913,-15 313.1396,-298.9454 0.1172,-71.8212 70.708,-17.8125 110.6104,11.2793 -0.1026,59.0185 158.8184,83.7305 44.4433,-11.1768 110.5958,11.25 -0.4542,277.7784 -72.3925,26.8212 -62.1826,-7.7636 -274.1016,235.0049 -2.5049,56.5869 z m -98.1006,-202.544 63.9112,-14.5166 203.7744,-186.6504 127.0312,-134.4287 0.073,-44.2529 -132.5537,-69.9024 -0.3076,183.8819 -72.4073,26.792 -64.3799,-8.0274 -229.2627,204.0088 z"
         transform="matrix(0.13333333,0,0,-0.13333333,0,1046.72)" />
    </g>
    <g
       id="Flag"
       style="display:inline">
      <path
         id="FlagColor"
         d="m 3037.31,6003.62 604.82,-111.54 -604.82,-165.25 z"
         style="display:inline;fill:#ce3642;fill-opacity:1;fill-rule:nonzero;stroke:none"
         transform="matrix(0.13333333,0,0,-0.13333333,0,1046.72)" />
      <path
         id="FlagOutline"
         style="display:inline;fill:#100f0d;fill-opacity:1;fill-rule:nonzero;stroke:none"
         d="M 3021.0059 6050.4441 L 3021.0059 5301.323 L 3051.8848 5301.323 L 3051.8848 5714.8191 L 3711.4161 5895.0095 L 3051.8848 6016.6355 L 3051.8848 6050.4441 L 3021.0059 6050.4441 z M 3052.7491 5985.0681 L 3572.8565 5889.1648 L 3052.7491 5747.0603 L 3052.7491 5985.0681 z "
         transform="matrix(0.13333333,0,0,-0.13333333,0,1046.72)" />
    </g>
    <g
       id="Pips"
       style="display:inline">
      <path
         id="PipWindowA"
         style="display:inline;fill:#100f0d;fill-opacity:1;fill-rule:nonzero;stroke:none"
         d="M 3274.3507 2945.5319 C 3266.3261 2945.9027 3258.1927 2944.8657 3250.254 2942.3532 C 3246.924 2941.3032 3243.5491 2940.006 3240.2491 2938.486 C 3208.1091 2923.776 3187.4147 2890.6364 3187.5147 2854.0964 L 3188.6134 2427.5338 L 3343.3741 2489.2038 L 3341.4991 2874.7946 C 3341.3791 2897.3546 3330.4043 2918.7939 3312.1143 2932.1139 C 3300.7831 2940.3702 3287.7249 2944.9138 3274.3507 2945.5319 z "
         transform="matrix(0.13333333,0,0,-0.13333333,0,1046.72)" />
      <path
         id="PipWindowB"
         style="display:inline;fill:#100f0d;fill-opacity:1;fill-rule:nonzero;stroke:none"
         d="M 3902.3146 3148.9987 C 3894.2924 3149.3669 3886.1638 3148.3216 3878.2325 3145.8054 C 3874.8325 3144.7354 3871.443 3143.4182 3868.213 3141.9382 C 3836.073 3127.2182 3815.3786 3094.0985 3815.4786 3057.5485 L 3816.5919 2630.986 L 3971.3526 2692.6559 L 3969.463 3078.2468 C 3969.363 3100.8068 3958.3829 3122.2461 3940.0929 3135.5661 C 3928.7554 3143.8286 3915.6848 3148.3851 3902.3146 3148.9987 z "
         transform="matrix(0.13333333,0,0,-0.13333333,0,1046.72)" />
      <path
         id="PipDoor"
         style="display:inline;fill:#100f0d;fill-opacity:1;fill-rule:nonzero;stroke:none"
         d="M 3621.211 2907.3581 C 3612.2079 2906.9137 3603.2212 2905.4353 3594.4337 2902.8903 C 3588.9937 2901.3003 3583.51 2899.3449 3578.13 2897.0749 C 3525.04 2874.6749 3490.954 2823.7165 3491.294 2767.2165 L 3493.9161 2323.7497 L 3748.0811 2409.9557 L 3740.9767 2800.6735 C 3740.7067 2833.4135 3724.7704 2863.9293 3697.2804 2884.3893 C 3675.3279 2900.7243 3648.2204 2908.6912 3621.211 2907.3581 z "
         transform="matrix(0.13333333,0,0,-0.13333333,0,1046.72)" />
      <path
         id="Pip2A"
         d="m 3296.66,3814.83 c -44.27,-15.47 -92.95,11.14 -99.77,57.54 -0.06,0.39 -0.11,0.78 -0.17,1.17 -10.13,75.13 38.4,168.3 105.8,202.63 17.47,8.89 35.9,14.73 55.84,11.18 30.13,-5.37 51.35,-29.56 56.49,-63.6 11.37,-75.27 -38.19,-170.83 -106.91,-204.29 -3.65,-1.77 -7.43,-3.28 -11.28,-4.63"
         style="display:inline;fill:#211d1d;fill-opacity:1;fill-rule:nonzero;stroke:none"
         transform="matrix(0.13333333,0,0,-0.13333333,0,1046.72)" />
      <path
         id="Pip2B"
         d="m 3659.04,3605.45 c -44.27,-15.47 -92.95,11.15 -99.77,57.54 -0.06,0.39 -0.11,0.78 -0.16,1.18 -10.14,75.12 38.39,168.29 105.8,202.62 17.46,8.89 35.9,14.74 55.83,11.18 30.13,-5.37 51.36,-29.56 56.5,-63.6 11.36,-75.26 -38.2,-170.83 -106.92,-204.29 -3.65,-1.77 -7.42,-3.28 -11.28,-4.63"
         style="display:inline;fill:#211d1d;fill-opacity:1;fill-rule:nonzero;stroke:none"
         transform="matrix(0.13333333,0,0,-0.13333333,0,1046.72)" />
      <path
         id="Pip4D"
         d="m 2734.82,3656.02 c 0.19,0.7 0.38,1.4 0.59,2.09 10.98,37.82 52.42,57.93 89.86,45.67 38.15,-12.49 65.15,-39.46 86.56,-72.33 27.56,-42.34 43.7,-88.14 35.06,-139.98 -8.48,-50.92 -50.63,-74.29 -98.49,-54.96 -49.85,20.13 -80.66,59.72 -100.74,107.45 -5.14,12.23 -8.81,25.08 -11.94,37.53 -6.16,24.45 -7.4,50.17 -0.9,74.53"
         style="display:inline;fill:#211d1d;fill-opacity:1;fill-rule:nonzero;stroke:none"
         transform="matrix(0.13333333,0,0,-0.13333333,0,1046.72)" />
      <path
         id="Pip4C"
         d="m 2377.8,3825.16 c 0.18,0.7 0.38,1.4 0.58,2.09 10.98,37.83 52.43,57.93 89.86,45.67 38.15,-12.49 65.16,-39.46 86.56,-72.33 27.57,-42.34 43.7,-88.14 35.06,-139.98 -8.48,-50.92 -50.62,-74.29 -98.49,-54.96 -49.85,20.13 -80.66,59.73 -100.73,107.46 -5.15,12.22 -8.81,25.07 -11.95,37.52 -6.16,24.45 -7.4,50.17 -0.89,74.53"
         style="display:inline;fill:#211d1d;fill-opacity:1;fill-rule:nonzero;stroke:none"
         transform="matrix(0.13333333,0,0,-0.13333333,0,1046.72)" />
      <path
         id="Pip4B"
         d="m 2734.38,4055.36 c 0.19,0.7 0.38,1.4 0.58,2.09 10.99,37.83 52.43,57.93 89.86,45.67 38.15,-12.49 65.16,-39.46 86.57,-72.33 27.56,-42.34 43.69,-88.14 35.06,-139.98 -8.49,-50.92 -50.63,-74.29 -98.5,-54.96 -49.85,20.13 -80.66,59.73 -100.73,107.46 -5.14,12.22 -8.81,25.07 -11.95,37.52 -6.16,24.45 -7.4,50.17 -0.89,74.53"
         style="display:inline;fill:#211d1d;fill-opacity:1;fill-rule:nonzero;stroke:none"
         transform="matrix(0.13333333,0,0,-0.13333333,0,1046.72)" />
      <path
         id="Pip4A"
         d="m 2377.8,4217.85 c 0.18,0.7 0.38,1.4 0.58,2.09 10.98,37.83 52.43,57.93 89.86,45.68 38.15,-12.49 65.16,-39.46 86.56,-72.34 27.57,-42.33 43.7,-88.14 35.06,-139.98 -8.48,-50.92 -50.62,-74.28 -98.49,-54.96 -49.85,20.13 -80.66,59.73 -100.73,107.46 -5.15,12.23 -8.81,25.07 -11.95,37.52 -6.16,24.45 -7.4,50.18 -0.89,74.53"
         style="display:inline;fill:#211d1d;fill-opacity:1;fill-rule:nonzero;stroke:none"
         transform="matrix(0.13333333,0,0,-0.13333333,0,1046.72)" />
      <path
         id="Pip3A"
         d="m 3169.53,4878.01 c -32.12,-10.88 -67.48,9.12 -72.42,42.67 -0.04,0.29 -0.08,0.57 -0.12,0.86 -7.45,55.27 28.25,123.82 77.84,149.07 12.85,6.54 26.41,10.84 41.07,8.23 22.17,-3.95 37.79,-21.75 41.57,-46.79 8.36,-55.37 -28.1,-125.68 -78.66,-150.3 -2.99,-1.45 -6.1,-2.66 -9.28,-3.74"
         style="display:inline;fill:#211d1d;fill-opacity:1;fill-rule:nonzero;stroke:none"
         transform="matrix(0.13333333,0,0,-0.13333333,0,1046.72)" />
      <path
         id="Pip3B"
         d="m 3361.8,4731.6 c -32.12,-10.88 -67.49,9.11 -72.42,42.67 -0.04,0.28 -0.08,0.57 -0.12,0.86 -7.46,55.27 28.24,123.82 77.83,149.07 12.85,6.54 26.41,10.84 41.08,8.23 22.17,-3.96 37.78,-21.75 41.56,-46.79 8.37,-55.38 -28.09,-125.68 -78.65,-150.3 -3,-1.45 -6.11,-2.67 -9.28,-3.74"
         style="display:inline;fill:#211d1d;fill-opacity:1;fill-rule:nonzero;stroke:none"
         transform="matrix(0.13333333,0,0,-0.13333333,0,1046.72)" />
      <path
         id="Pip3C"
         d="m 3525.3,4577.03 c -32.12,-10.88 -67.48,9.11 -72.42,42.67 -0.04,0.28 -0.08,0.57 -0.12,0.86 -7.45,55.27 28.25,123.82 77.84,149.07 12.85,6.54 26.41,10.84 41.08,8.23 22.16,-3.96 37.78,-21.75 41.56,-46.79 8.36,-55.38 -28.1,-125.68 -78.66,-150.3 -2.99,-1.45 -6.1,-2.67 -9.28,-3.74"
         style="display:inline;fill:#211d1d;fill-opacity:1;fill-rule:nonzero;stroke:none"
         transform="matrix(0.13333333,0,0,-0.13333333,0,1046.72)" />
      <path
         id="Pip6A"
         d="m 2523.52,5177.74 c 0.27,0.94 0.57,1.87 0.88,2.8 7.45,22.12 31.66,33.73 54.12,27.39 20.81,-5.88 36.85,-18.9 49.98,-35.59 23.06,-29.3 36.76,-61.89 32.03,-100.17 -4.15,-33.65 -36.31,-50.93 -67.22,-37 -33.89,15.28 -53.67,43.69 -65.95,77.7 -1.81,5 -3.17,10.16 -4.33,15.38 -3.65,16.31 -4.2,33.44 0.49,49.49"
         style="display:inline;fill:#211d1d;fill-opacity:1;fill-rule:nonzero;stroke:none"
         transform="matrix(0.13333333,0,0,-0.13333333,0,1046.72)" />
      <path
         id="Pip6B"
         d="m 2791.05,5065.66 c 0.28,0.94 0.57,1.87 0.88,2.8 7.45,22.12 31.66,33.72 54.12,27.38 20.82,-5.87 36.85,-18.89 49.99,-35.58 23.05,-29.3 36.76,-61.89 32.03,-100.17 -4.15,-33.65 -36.32,-50.94 -67.22,-37 -33.9,15.28 -53.68,43.69 -65.96,77.7 -1.8,5 -3.16,10.16 -4.33,15.38 -3.64,16.31 -4.19,33.44 0.49,49.49"
         style="display:inline;fill:#211d1d;fill-opacity:1;fill-rule:nonzero;stroke:none"
         transform="matrix(0.13333333,0,0,-0.13333333,0,1046.72)" />
      <path
         id="Pip6C"
         d="m 2527.18,4962.52 c 0.27,0.95 0.57,1.88 0.88,2.81 7.45,22.11 31.66,33.72 54.12,27.38 20.81,-5.87 36.85,-18.89 49.98,-35.59 23.06,-29.3 36.76,-61.88 32.03,-100.16 -4.15,-33.65 -36.31,-50.94 -67.22,-37 -33.89,15.28 -53.67,43.69 -65.95,77.7 -1.81,5 -3.17,10.16 -4.33,15.38 -3.65,16.31 -4.2,33.44 0.49,49.48"
         style="display:inline;fill:#211d1d;fill-opacity:1;fill-rule:nonzero;stroke:none"
         transform="matrix(0.13333333,0,0,-0.13333333,0,1046.72)" />
      <path
         id="Pip6D"
         d="m 2790.22,4848.01 c 0.28,0.94 0.57,1.87 0.88,2.8 7.45,22.12 31.66,33.72 54.12,27.38 20.82,-5.87 36.85,-18.89 49.99,-35.58 23.05,-29.3 36.76,-61.89 32.03,-100.17 -4.15,-33.65 -36.32,-50.94 -67.22,-37 -33.9,15.28 -53.68,43.69 -65.96,77.7 -1.8,5 -3.16,10.16 -4.33,15.38 -3.64,16.31 -4.19,33.44 0.49,49.49"
         style="display:inline;fill:#211d1d;fill-opacity:1;fill-rule:nonzero;stroke:none"
         transform="matrix(0.13333333,0,0,-0.13333333,0,1046.72)" />
      <path
         id="Pip6E"
         d="m 2518.01,4747.31 c 0.28,0.94 0.57,1.88 0.88,2.8 7.45,22.12 31.66,33.73 54.12,27.39 20.82,-5.88 36.85,-18.89 49.99,-35.59 23.05,-29.3 36.76,-61.88 32.03,-100.17 -4.15,-33.64 -36.32,-50.93 -67.22,-37 -33.9,15.28 -53.68,43.7 -65.96,77.71 -1.8,5 -3.16,10.16 -4.33,15.37 -3.64,16.32 -4.19,33.44 0.49,49.49"
         style="display:inline;fill:#211d1d;fill-opacity:1;fill-rule:nonzero;stroke:none"
         transform="matrix(0.13333333,0,0,-0.13333333,0,1046.72)" />
      <path
         id="Pip6F"
         d="m 2780.81,4630.3 c 0.27,0.94 0.57,1.87 0.88,2.8 7.44,22.11 31.66,33.72 54.12,27.38 20.81,-5.87 36.85,-18.89 49.98,-35.58 23.05,-29.3 36.76,-61.89 32.03,-100.17 -4.15,-33.65 -36.31,-50.94 -67.22,-37 -33.89,15.28 -53.68,43.69 -65.95,77.7 -1.81,5 -3.17,10.16 -4.33,15.38 -3.65,16.31 -4.2,33.44 0.49,49.49"
         style="display:inline;fill:#211d1d;fill-opacity:1;fill-rule:nonzero;stroke:none"
         transform="matrix(0.13333333,0,0,-0.13333333,0,1046.72)" />
      <path
         id="Pip1A"
         d="m 2415.67,2792.67 c 0.18,0.7 0.38,1.4 0.58,2.09 10.98,37.83 52.43,57.93 89.86,45.67 38.15,-12.49 65.16,-39.46 86.56,-72.33 27.57,-42.34 43.7,-88.14 35.06,-139.98 -8.48,-50.92 -50.62,-74.29 -98.49,-54.96 -49.85,20.13 -80.66,59.73 -100.73,107.46 -5.15,12.22 -8.81,25.07 -11.95,37.52 -6.16,24.45 -7.4,50.17 -0.89,74.53"
         style="display:inline;fill:#211d1d;fill-opacity:1;fill-rule:nonzero;stroke:none"
         transform="matrix(0.13333333,0,0,-0.13333333,0,1046.72)" />
    </g>
  </svg>
  <style
     id="style1">@media (prefers-color-scheme: light) { :root { filter: none; } }
@media (prefers-color-scheme: dark) { :root { filter: none; } }
</style>
</svg>
