<svg xmlns="http://www.w3.org/2000/svg" xml:space="preserve" viewBox="0 0 2000 2000"><g>
<path d="m830.8 913.6-8.5 5.2 4.7 50.3c-16.7 18.7-35.8 39.6-52.8 58.1l.662-93.7-8.6 2-30.5 123.3-69.6 40.7 52.5-165.2-8.1-1.6-90.3 179.6-73.2-10.8 110.7-182.6-10.4-5.9-147 173.9c-23-12.7-44.5-24.2-67.9-37.1l185.5-175-9.2-14.1-221.9 156.4-77.3-57.1L592.1 819.8l-4.7-17.6-319 120.9-72.1-68.4 387.6-96.7 3.3-19.1-431.1 75.9-65.1-71.6 507.9-43.6 11.4-16.3-548.9 26.6L1 630h761.3c0 4.5-1.4 9.6-.197 13.5C579.5 735.5 667 951 906.5 804.8l48.1 49.4-82.1 208-66.3-49.2c33.1-26.7 71.1-82 79.7-114.4 2.2-8.3.276-12.1-6.6-12.7-6.7-.609-13.3 5.8-9.8 13 2 4 6.2 6.9 6.2 6.9-7.7 9.6-26.5 34.6-34.5 45.4zM1105.7 1216.3c-5.2 5.2-13.4 14.1-19 20.1-11.5-25.9-22.2-52.3-33.8-78.3-1.9 1.5-4.9 5.1-6 6l30.3 80c-6.7 6.4-17.4 17.8-24.4 25.2-10-28.8-19-58.8-28.9-87.2l-6 5 24.8 93c-13.4 14.7-28.9 29.2-42.8 44.2L958.5 1280l27.5-93-6-5c-10 28.8-20.4 58.1-30.7 87.7l-21.8-24.1L958 1164l-6-6c-11.5 25.9-21.1 51.8-32.8 78.3l-19.6-21.4c9.1-23 22-52.1 31.5-75l-50.8-58L1000 762.2 1123.9 1082 1073 1140z"/>
<path d="m1114.2 1283.9-21.9 9.1 6.9-16L1085 1262.5l25-3.2 25.8-27.8-7.5-12.8 3.4-3.9-46.7-71.9 36.2-39.1 48.1 92.1L1176 1192l7.9 12.5 24.8-7.9 6.8-15.2 10.8 10.5 23.1 2.3-17.1 15.7-2.7 65.3-19.3-59.5-29.9 10.6 14.1 24L1206.5 1248l-4.2 12.7 26.7 47 4 46.5-12.1-14.5-48.8 18.5 29.3-39.5-22.7-43.2-14.8 2 8-13.9-12.8-26.4-26.8 32.3 31.1 28.5zM789.5 1329.6l26 26.4c-12.2-5.3-41.8-11.2-52.8-16.4v-31.3l53-75.5-22.2-3.3-30.9 54 10.8-89.3 52.6 15.9 57.4-105.5 36.3 39.6-63.6 80.9L900.2 1266l-85.8 52.3L861 1268l-23-24.2zM1009.6 759c18.1-13.3 35.8-26.5 53.6-39.4 1.1-.801 3.2-.925 4.6-.545 7.6 2.1 15.1 4.2 22.5 6.7 1.6.549 3.3 2.7 3.7 4.4 2.9 13.7 5.5 27.4 8 41.2.347 1.9.083 4.8-1.1 6-19.9 20.9-40 41.7-60.8 63.2zM900.4 779.2c-2.1-2.2-2.8-4.1-2.1-7.3 2.8-13.4 5.3-26.8 7.6-40.2.578-3.3 1.8-5 5.2-5.9 6.9-1.8 13.7-4.3 20.6-6 2-.488 4.8.001 6.4 1.2a3087 3087 0 0 1 49.2 36.2c1.3 1 2.7 3.9 2.2 5.2 0 0-19.2 51.8-28.9 77.7z"/>
<path d="M1110.7 767.7c-2.9-14.7-5.8-28.7-8.4-42.8-.667-3.6-2.1-5.5-5.8-6.6-23.3-7-46.6-14.4-69.9-21.4-3.2-.97-8.3-3.2-4.8-4.6 4.4-1.7 64.4-.915 64.4-.915 4.2.101 7.4-.864 10.4-4.1 1.4-1.5 4.4-2.4 6.5-2.2 23.3 2.3 46.6 4.9 69.8 7.3 3.6.364 5.3 1.6 6.2 5.3 2.7 11.3 2.8 11.2-6 18.6zM820.8 711c-5.5-5.1-1.4-11.3 1.2-16.4 1.5-3 3-3 5.4-3 49.5.009 99-.016 148.4.099 1.4.003 3.8.772 4 2.3.238 1.8-2.1 2.9-3.5 3.3-24 7.3-48 14.6-72.1 21.4-4.4 1.3-5.9 3.4-6.6 7.5l-8.5 41.9zm44.1 13.2c4.5.082 8.5-3.6 8.7-8.2.238-4.7-3.8-8.8-8.6-8.8-4.7.037-8.5 3.8-8.5 8.4.004 4.6 3.8 8.5 8.3 8.6M1173.6 723.5c1.6-1.3 4.5-2.4 6.2-1.8 15.2 5.1 30.2 10.6 46 16.3l-22.5 59.7c-4-9.9-7.6-18.6-10.8-27.4-1.3-3.5-3.4-5-6.8-5.9-15.2-3.8-30.3-7.8-46.4-12zM860.1 753.6c-15.6 4.1-30.4 8.1-45.3 11.7-4.1.997-6.3 2.9-7.7 6.9-3.1 8.6-6.8 17-10.5 26.4l-22.5-59.4 47.9-18.6z"/>
<path d="m1168.2 913.6 8.5 5.2-4.7 50.3c16.7 18.7 35.8 39.6 52.8 58.1l-.662-93.7 8.6 2 30.5 123.3 69.6 40.7-52.5-165.2 8.1-1.6 90.3 179.6 73.2-10.8-110.7-182.6 10.4-5.9 147 173.9c23-12.7 44.5-24.2 67.9-37.1l-185.5-175 9.2-14.1 221.9 156.4 77.3-57.1L1406.9 819.8l4.7-17.6 319 120.9 72.1-68.4-387.6-96.7-3.3-19.1 431.1 75.9 65.1-71.6-507.9-43.6-11.4-16.3 548.9 26.6L1998 630h-761.3c0 4.5 1.4 9.6.197 13.5C1419.5 735.5 1332 951 1092.5 804.8l-48.1 49.4 82.1 208 66.3-49.2c-33.1-26.7-71.1-82-79.7-114.4-2.2-8.3-.276-12.1 6.6-12.7 6.7-.609 13.3 5.8 9.8 13-2 4-6.2 6.9-6.2 6.9 7.7 9.6 26.5 34.6 34.5 45.4z"/></g></svg>